<svg width="16" height="16" viewBox="0 0 16 16" fill="none" xmlns="http://www.w3.org/2000/svg">
<path d="M8.33299 15.1665H2.71965C1.67299 15.1665 0.812988 14.3265 0.812988 13.2865V3.39313C0.812988 2.37313 1.19299 1.5798 1.88632 1.14647C2.58632 0.706466 3.49299 0.719799 4.43299 1.18647L7.39299 2.6398C8.19965 3.0398 8.83299 4.04647 8.83299 4.9398V14.6665C8.83299 14.9398 8.60632 15.1665 8.33299 15.1665ZM3.03965 1.83313C2.80632 1.83313 2.59299 1.88647 2.41299 1.9998C2.02632 2.2398 1.81299 2.7398 1.81299 3.39313V13.2865C1.81299 13.7731 2.21965 14.1665 2.71965 14.1665H7.83299V4.9398C7.83299 4.42647 7.41965 3.76647 6.94632 3.5398L3.98632 2.08647C3.64632 1.9198 3.32632 1.83313 3.03965 1.83313Z" fill="#292D32"/>
<path d="M12.5402 15.1665H8.3335C8.06016 15.1665 7.8335 14.9399 7.8335 14.6665V6.94652C7.8335 6.79319 7.90016 6.65319 8.02016 6.55985C8.14016 6.46652 8.28683 6.42652 8.44016 6.45985L8.7535 6.52652L13.1135 7.49985C14.4402 7.79319 15.1068 8.57319 15.1468 9.89985C15.1535 9.89985 15.1535 9.96652 15.1535 10.0399V12.5599C15.1468 14.2665 14.2468 15.1665 12.5402 15.1665ZM8.8335 14.1665H12.5402C13.7135 14.1665 14.1468 13.7332 14.1468 12.5599V9.98652C14.1135 9.07319 13.7668 8.66652 12.8935 8.47319L8.8335 7.56652V14.1665Z" fill="#292D32"/>
<path d="M5.97984 6.5H3.6665C3.39317 6.5 3.1665 6.27333 3.1665 6C3.1665 5.72667 3.39317 5.5 3.6665 5.5H5.97984C6.25317 5.5 6.47984 5.72667 6.47984 6C6.47984 6.27333 6.25984 6.5 5.97984 6.5Z" fill="#292D32"/>
<path d="M5.97984 9.1665H3.6665C3.39317 9.1665 3.1665 8.93984 3.1665 8.6665C3.1665 8.39317 3.39317 8.1665 3.6665 8.1665H5.97984C6.25317 8.1665 6.47984 8.39317 6.47984 8.6665C6.47984 8.93984 6.25984 9.1665 5.97984 9.1665Z" fill="#292D32"/>
<path d="M10.1465 11.8332C9.04648 11.8332 8.14648 10.9332 8.14648 9.83316V7.01316C8.14648 6.85982 8.21315 6.71982 8.33315 6.61982C8.45315 6.51982 8.60648 6.48649 8.75315 6.51982L11.7532 7.19316C11.9798 7.24649 12.1465 7.44649 12.1465 7.67982V9.82649C12.1465 10.9332 11.2532 11.8332 10.1465 11.8332ZM9.14648 7.63982V9.83316C9.14648 10.3865 9.59315 10.8332 10.1465 10.8332C10.6998 10.8332 11.1465 10.3865 11.1465 9.83316V8.08649L9.14648 7.63982Z" fill="#292D32"/>
<path d="M13.1465 11.8334C12.0465 11.8334 11.1465 10.9334 11.1465 9.83342V7.68675C11.1465 7.53342 11.2132 7.39342 11.3332 7.30009C11.4532 7.20675 11.6065 7.16675 11.7532 7.20009L13.1065 7.50009C14.4332 7.79342 15.0998 8.57342 15.1398 9.90009C15.1398 9.91342 15.1398 9.92675 15.1398 9.94009C15.0865 11.0001 14.2132 11.8334 13.1465 11.8334ZM12.1465 8.30675V9.83342C12.1465 10.3868 12.5932 10.8334 13.1465 10.8334C13.6732 10.8334 14.1065 10.4268 14.1398 9.90675C14.1065 9.06675 13.7598 8.66675 12.8932 8.47342L12.1465 8.30675Z" fill="#292D32"/>
</svg>
