<svg width="16" height="16" viewBox="0 0 16 16" fill="none" xmlns="http://www.w3.org/2000/svg">
<path d="M11.6335 15.1668C10.8802 15.1668 10.0868 14.9868 9.26683 14.6402C8.46683 14.3002 7.66016 13.8335 6.8735 13.2668C6.0935 12.6935 5.34016 12.0535 4.62683 11.3535C3.92016 10.6402 3.28016 9.88683 2.7135 9.1135C2.14016 8.3135 1.68016 7.5135 1.3535 6.74016C1.00683 5.9135 0.833496 5.1135 0.833496 4.36016C0.833496 3.84016 0.926829 3.34683 1.10683 2.88683C1.2935 2.4135 1.5935 1.9735 2.00016 1.5935C2.5135 1.08683 3.10016 0.833496 3.72683 0.833496C3.98683 0.833496 4.2535 0.893496 4.48016 1.00016C4.74016 1.12016 4.96016 1.30016 5.12016 1.54016L6.66683 3.72016C6.80683 3.9135 6.9135 4.10016 6.98683 4.28683C7.0735 4.48683 7.12016 4.68683 7.12016 4.88016C7.12016 5.1335 7.04683 5.38016 6.90683 5.6135C6.80683 5.7935 6.6535 5.98683 6.46016 6.18016L6.00683 6.6535C6.0135 6.6735 6.02016 6.68683 6.02683 6.70016C6.10683 6.84016 6.26683 7.08016 6.5735 7.44016C6.90016 7.8135 7.20683 8.1535 7.5135 8.46683C7.90683 8.8535 8.2335 9.16016 8.54016 9.4135C8.92016 9.7335 9.16683 9.8935 9.3135 9.96683L9.30016 10.0002L9.78683 9.52016C9.9935 9.3135 10.1935 9.16016 10.3868 9.06016C10.7535 8.8335 11.2202 8.7935 11.6868 8.98683C11.8602 9.06016 12.0468 9.16016 12.2468 9.30016L14.4602 10.8735C14.7068 11.0402 14.8868 11.2535 14.9935 11.5068C15.0935 11.7602 15.1402 11.9935 15.1402 12.2268C15.1402 12.5468 15.0668 12.8668 14.9268 13.1668C14.7868 13.4668 14.6135 13.7268 14.3935 13.9668C14.0135 14.3868 13.6002 14.6868 13.1202 14.8802C12.6602 15.0668 12.1602 15.1668 11.6335 15.1668ZM3.72683 1.8335C3.36016 1.8335 3.02016 1.9935 2.6935 2.3135C2.38683 2.60016 2.1735 2.9135 2.04016 3.2535C1.90016 3.60016 1.8335 3.96683 1.8335 4.36016C1.8335 4.98016 1.98016 5.6535 2.2735 6.34683C2.5735 7.0535 2.9935 7.78683 3.52683 8.52016C4.06016 9.2535 4.66683 9.96683 5.3335 10.6402C6.00016 11.3002 6.72016 11.9135 7.46016 12.4535C8.18016 12.9802 8.92016 13.4068 9.6535 13.7135C10.7935 14.2002 11.8602 14.3135 12.7402 13.9468C13.0802 13.8068 13.3802 13.5935 13.6535 13.2868C13.8068 13.1202 13.9268 12.9402 14.0268 12.7268C14.1068 12.5602 14.1468 12.3868 14.1468 12.2135C14.1468 12.1068 14.1268 12.0002 14.0735 11.8802C14.0535 11.8402 14.0135 11.7668 13.8868 11.6802L11.6735 10.1068C11.5402 10.0135 11.4202 9.94683 11.3068 9.90016C11.1602 9.84016 11.1002 9.78016 10.8735 9.92016C10.7402 9.98683 10.6202 10.0868 10.4868 10.2202L9.98016 10.7202C9.72016 10.9735 9.32016 11.0335 9.0135 10.9202L8.8335 10.8402C8.56016 10.6935 8.24016 10.4668 7.88683 10.1668C7.56683 9.8935 7.22016 9.5735 6.80016 9.16016C6.4735 8.82683 6.14683 8.4735 5.80683 8.08016C5.4935 7.7135 5.26683 7.40016 5.12683 7.14016L5.04683 6.94016C5.00683 6.78683 4.9935 6.70016 4.9935 6.60683C4.9935 6.36683 5.08016 6.1535 5.24683 5.98683L5.74683 5.46683C5.88016 5.3335 5.98016 5.20683 6.04683 5.0935C6.10016 5.00683 6.12016 4.9335 6.12016 4.86683C6.12016 4.8135 6.10016 4.7335 6.06683 4.6535C6.02016 4.54683 5.94683 4.42683 5.8535 4.30016L4.30683 2.1135C4.24016 2.02016 4.16016 1.9535 4.06016 1.90683C3.9535 1.86016 3.84016 1.8335 3.72683 1.8335ZM9.30016 10.0068L9.1935 10.4602L9.3735 9.9935C9.34016 9.98683 9.3135 9.9935 9.30016 10.0068Z" fill="black"/>
</svg>
