<svg width="16" height="16" viewBox="0 0 16 16" fill="none" xmlns="http://www.w3.org/2000/svg">
<path d="M8.00016 15.1668C4.04683 15.1668 0.833496 11.9535 0.833496 8.00016C0.833496 4.04683 4.04683 0.833496 8.00016 0.833496C11.9535 0.833496 15.1668 4.04683 15.1668 8.00016C15.1668 11.9535 11.9535 15.1668 8.00016 15.1668ZM8.00016 1.8335C4.60016 1.8335 1.8335 4.60016 1.8335 8.00016C1.8335 11.4002 4.60016 14.1668 8.00016 14.1668C11.4002 14.1668 14.1668 11.4002 14.1668 8.00016C14.1668 4.60016 11.4002 1.8335 8.00016 1.8335Z" fill="#292D32"/>
<path d="M10.4736 10.6202C10.3869 10.6202 10.3003 10.6002 10.2203 10.5468L8.15359 9.3135C7.64025 9.00684 7.26025 8.3335 7.26025 7.74017V5.00684C7.26025 4.7335 7.48692 4.50684 7.76025 4.50684C8.03359 4.50684 8.26025 4.7335 8.26025 5.00684V7.74017C8.26025 7.98017 8.46025 8.3335 8.66692 8.4535L10.7336 9.68684C10.9736 9.82684 11.0469 10.1335 10.9069 10.3735C10.8069 10.5335 10.6403 10.6202 10.4736 10.6202Z" fill="#292D32"/>
</svg>
