<svg width="36" height="36" viewBox="0 0 36 36" fill="none" xmlns="http://www.w3.org/2000/svg">
<path d="M17.2831 8.14776C18.2161 8.14776 18.9725 7.39137 18.9725 6.45838C18.9725 4.76022 20.3542 3.37876 22.0521 3.37876H26.8227C27.7557 3.37876 28.5121 2.62237 28.5121 1.68938C28.5121 0.756391 27.7557 0 26.8227 0H22.0521C18.4909 0 15.5938 2.89717 15.5938 6.45838C15.5938 7.39115 16.3501 8.14776 17.2831 8.14776Z" fill="black"/>
<path d="M26.4587 13.4312H9.18157C8.24858 13.4312 7.49219 14.1875 7.49219 15.1205C7.49219 16.0535 8.24858 16.8099 9.18157 16.8099H15.5922V34.3107C15.5922 35.2437 16.3486 36.0001 17.2816 36.0001C18.2146 36.0001 18.971 35.2437 18.971 34.3107V16.8099H26.459C27.3919 16.8099 28.1483 16.0535 28.1483 15.1205C28.1483 14.1875 27.3917 13.4312 26.4587 13.4312Z" fill="black"/>
</svg>
