<svg width="36" height="36" viewBox="0 0 36 36" fill="none" xmlns="http://www.w3.org/2000/svg">
<g clip-path="url(#clip0_1_4173)">
<path d="M26.0649 0H9.93443C4.45659 0 0 4.4568 0 9.93464V26.0651C0 31.5432 4.45659 35.9998 9.93443 35.9998H26.0649C31.5432 35.9998 35.9998 31.543 35.9998 26.0651V9.93464C36 4.4568 31.5432 0 26.0649 0ZM32.8059 26.0651C32.8059 29.782 29.782 32.8057 26.0651 32.8057H9.93443C6.2178 32.8059 3.19408 29.782 3.19408 26.0651V9.93464C3.19408 6.21801 6.2178 3.19408 9.93443 3.19408H26.0649C29.7818 3.19408 32.8057 6.21801 32.8057 9.93464V26.0651H32.8059Z" fill="black"/>
<path d="M17.9989 8.72412C12.8839 8.72412 8.72266 12.8854 8.72266 18.0004C8.72266 23.1151 12.8839 27.2762 17.9989 27.2762C23.1139 27.2762 27.2751 23.1151 27.2751 18.0004C27.2751 12.8854 23.1139 8.72412 17.9989 8.72412ZM17.9989 24.0819C14.6453 24.0819 11.9167 21.3537 11.9167 18.0001C11.9167 14.6464 14.6451 11.918 17.9989 11.918C21.3527 11.918 24.081 14.6464 24.081 18.0001C24.081 21.3537 21.3525 24.0819 17.9989 24.0819Z" fill="black"/>
<path d="M27.6665 6.01611C27.0511 6.01611 26.4466 6.26525 26.012 6.70178C25.5753 7.13617 25.3242 7.74091 25.3242 8.35844C25.3242 8.97404 25.5755 9.57857 26.012 10.0151C26.4464 10.4495 27.0511 10.7008 27.6665 10.7008C28.2841 10.7008 28.8867 10.4495 29.3232 10.0151C29.7597 9.57857 30.0089 8.97383 30.0089 8.35844C30.0089 7.74091 29.7597 7.13617 29.3232 6.70178C28.8888 6.26525 28.2841 6.01611 27.6665 6.01611Z" fill="black"/>
</g>
<defs>
<clipPath id="clip0_1_4173">
<rect width="36" height="36" fill="white"/>
</clipPath>
</defs>
</svg>
