<svg width="36" height="36" viewBox="0 0 36 36" fill="none" xmlns="http://www.w3.org/2000/svg">
<g id="vuesax/outline/location">
<g id="vuesax/outline/location_2">
<g id="location">
<path id="Vector" d="M18.0003 21.255C14.8053 21.255 12.1953 18.66 12.1953 15.45C12.1953 12.24 14.8053 9.66003 18.0003 9.66003C21.1953 9.66003 23.8053 12.255 23.8053 15.465C23.8053 18.675 21.1953 21.255 18.0003 21.255ZM18.0003 11.91C16.0503 11.91 14.4453 13.5 14.4453 15.465C14.4453 17.43 16.0353 19.02 18.0003 19.02C19.9653 19.02 21.5553 17.43 21.5553 15.465C21.5553 13.5 19.9503 11.91 18.0003 11.91Z" fill="#292D32"/>
<path id="Vector_2" d="M17.9986 34.14C15.7786 34.14 13.5436 33.3 11.8036 31.635C7.37855 27.375 2.48856 20.58 4.33356 12.495C5.99856 5.16 12.4036 1.875 17.9986 1.875C17.9986 1.875 17.9986 1.875 18.0136 1.875C23.6086 1.875 30.0136 5.16 31.6786 12.51C33.5086 20.595 28.6186 27.375 24.1936 31.635C22.4536 33.3 20.2186 34.14 17.9986 34.14ZM17.9986 4.125C13.6336 4.125 8.02356 6.45 6.53856 12.99C4.91856 20.055 9.35855 26.145 13.3786 30C15.9736 32.505 20.0386 32.505 22.6336 30C26.6386 26.145 31.0786 20.055 29.4886 12.99C27.9886 6.45 22.3636 4.125 17.9986 4.125Z" fill="#292D32"/>
</g>
</g>
</g>
</svg>
