<svg width="36" height="36" viewBox="0 0 36 36" fill="none" xmlns="http://www.w3.org/2000/svg">
<path d="M30.9304 19.605C30.3604 19.605 29.8804 19.17 29.8054 18.6C29.4454 15.21 27.6154 12.135 24.7954 10.185C24.2854 9.82503 24.1654 9.13503 24.5104 8.62503C24.8704 8.11503 25.5754 7.99503 26.0704 8.34003C29.4304 10.665 31.5904 14.325 32.0254 18.36C32.0854 18.975 31.6504 19.53 31.0204 19.605C31.0054 19.605 30.9604 19.605 30.9304 19.605Z" fill="#292D32"/>
<path d="M5.23486 19.6799C5.18986 19.6799 5.15986 19.6799 5.11486 19.6799C4.49986 19.6049 4.04986 19.0499 4.10986 18.4349C4.51486 14.3999 6.65986 10.7549 9.97486 8.3999C10.4849 8.0399 11.1899 8.1599 11.5499 8.6699C11.9099 9.1799 11.7899 9.8849 11.2799 10.2449C8.48986 12.2099 6.68986 15.2849 6.34486 18.6749C6.29986 19.2449 5.80486 19.6799 5.23486 19.6799Z" fill="#292D32"/>
<path d="M18.0899 33.9149C15.8699 33.9149 13.7549 33.4049 11.7749 32.4149C11.2199 32.1299 10.9949 31.4549 11.2799 30.8999C11.5649 30.3449 12.2399 30.1199 12.7949 30.4049C16.0349 32.0399 19.9349 32.0699 23.2049 30.4949C23.7599 30.2249 24.4349 30.4649 24.7049 31.0199C24.9749 31.5749 24.735 32.2499 24.1799 32.5199C22.2599 33.4499 20.2199 33.9149 18.0899 33.9149Z" fill="#292D32"/>
<path d="M18.0899 12.6598C15.1649 12.6598 12.7949 10.2898 12.7949 7.36482C12.7949 4.43982 15.1649 2.06982 18.0899 2.06982C21.0149 2.06982 23.3849 4.43982 23.3849 7.36482C23.3849 10.2898 20.9999 12.6598 18.0899 12.6598ZM18.0899 4.33482C16.4099 4.33482 15.0449 5.69982 15.0449 7.37982C15.0449 9.05982 16.4099 10.4248 18.0899 10.4248C19.7699 10.4248 21.1349 9.05982 21.1349 7.37982C21.1349 5.69982 19.7549 4.33482 18.0899 4.33482Z" fill="#292D32"/>
<path d="M7.24471 31.005C4.31971 31.005 1.94971 28.635 1.94971 25.71C1.94971 22.8 4.31971 20.415 7.24471 20.415C10.1697 20.415 12.5397 22.785 12.5397 25.71C12.5397 28.62 10.1697 31.005 7.24471 31.005ZM7.24471 22.665C5.56471 22.665 4.19971 24.03 4.19971 25.71C4.19971 27.39 5.56471 28.755 7.24471 28.755C8.92471 28.755 10.2897 27.39 10.2897 25.71C10.2897 24.03 8.92471 22.665 7.24471 22.665Z" fill="#292D32"/>
<path d="M28.755 31.005C25.83 31.005 23.46 28.635 23.46 25.71C23.46 22.8 25.83 20.415 28.755 20.415C31.68 20.415 34.05 22.785 34.05 25.71C34.035 28.62 31.665 31.005 28.755 31.005ZM28.755 22.665C27.075 22.665 25.71 24.03 25.71 25.71C25.71 27.39 27.075 28.755 28.755 28.755C30.435 28.755 31.8 27.39 31.8 25.71C31.785 24.03 30.435 22.665 28.755 22.665Z" fill="#292D32"/>
</svg>
