<svg width="36" height="36" viewBox="0 0 36 36" fill="none" xmlns="http://www.w3.org/2000/svg">
<path d="M28.981 34.1005C28.6998 34.1005 28.4205 34.0172 28.1809 33.8548L19.1291 27.7147L14.2742 31.2081C13.8934 31.4819 13.4027 31.5508 12.9605 31.3928C12.519 31.2343 12.1836 30.8686 12.0639 30.415L9.62623 21.1768L0.916026 17.8463C0.367684 17.6365 0.00402317 17.1119 3.31565e-05 16.5248C-0.00395686 15.9377 0.352484 15.4082 0.898166 15.191L34.0176 2.01258C34.1678 1.94874 34.3269 1.91188 34.4872 1.902C34.5446 1.89858 34.6022 1.89858 34.6594 1.90181C34.9915 1.92157 35.3177 2.05685 35.5723 2.30651C35.5987 2.33235 35.6238 2.35877 35.6476 2.38632C35.8585 2.62724 35.9744 2.92098 35.9962 3.22023C36.0015 3.29547 36.0012 3.37166 35.9945 3.44785C35.99 3.50219 35.9822 3.55634 35.9711 3.61011L30.3808 32.9422C30.2909 33.4134 29.9702 33.8079 29.5271 33.9916C29.3513 34.0646 29.1657 34.1005 28.981 34.1005ZM19.9239 24.81L27.9869 30.2792L32.3368 7.45553L16.6262 22.5731L19.8859 24.7844C19.899 24.7925 19.9115 24.8013 19.9239 24.81ZM13.2117 23.5938L14.2913 27.6845L16.6173 26.0108L13.5716 23.9447C13.43 23.849 13.3088 23.7297 13.2117 23.5938ZM5.34589 16.4885L11.3267 18.7752C11.7552 18.939 12.0786 19.2992 12.1956 19.7427L12.9541 22.6172C12.9889 22.2857 13.1391 21.9737 13.3833 21.7386L28.3533 7.33393L5.34589 16.4885Z" fill="black"/>
</svg>
