<svg width="36" height="36" viewBox="0 0 36 36" fill="none" xmlns="http://www.w3.org/2000/svg">
<path d="M25.4961 31.125H10.4961C5.33609 31.125 1.87109 27.66 1.87109 22.5V13.5C1.87109 8.34 5.33609 4.875 10.4961 4.875H25.4961C30.6561 4.875 34.1211 8.34 34.1211 13.5V22.5C34.1211 27.66 30.6561 31.125 25.4961 31.125ZM10.4961 7.125C6.62609 7.125 4.12109 9.63 4.12109 13.5V22.5C4.12109 26.37 6.62609 28.875 10.4961 28.875H25.4961C29.3661 28.875 31.8711 26.37 31.8711 22.5V13.5C31.8711 9.63 29.3661 7.125 25.4961 7.125H10.4961Z" fill="black"/>
<path d="M15.8835 23.2948C15.4485 23.2948 15.0285 23.1899 14.6535 22.9799C13.7835 22.4849 13.2734 21.4798 13.2734 20.2348V15.7948C13.2734 14.5498 13.7685 13.5449 14.6535 13.0499C15.5235 12.5549 16.6485 12.6448 17.7135 13.2898L21.4185 15.5098C22.4385 16.1248 23.0234 17.0399 23.0234 18.0149C23.0234 18.9899 22.4385 19.9048 21.4185 20.5198L17.7135 22.7398C17.0985 23.0998 16.4685 23.2948 15.8835 23.2948ZM15.8835 14.9548C15.8235 14.9548 15.7785 14.9698 15.7485 14.9848C15.6435 15.0448 15.5234 15.3148 15.5234 15.7798V20.2199C15.5234 20.6699 15.6435 20.9399 15.7485 21.0149C15.8685 21.0749 16.1535 21.0448 16.5435 20.8048L20.2485 18.5849C20.6235 18.3599 20.7585 18.1348 20.7585 17.9998C20.7585 17.8648 20.6235 17.6548 20.2485 17.4148L16.5435 15.1948C16.2735 15.0298 16.0335 14.9548 15.8835 14.9548Z" fill="black"/>
</svg>
