<svg width="16" height="16" viewBox="0 0 16 16" fill="none" xmlns="http://www.w3.org/2000/svg">
<g id="vuesax/bold/message-edit">
<g id="vuesax/bold/message-edit_2">
<g id="message-edit">
<path id="Vector" d="M10.6654 1.33325H5.33203C2.66536 1.33325 1.33203 2.66659 1.33203 5.33325V13.9999C1.33203 14.3666 1.63203 14.6666 1.9987 14.6666H10.6654C13.332 14.6666 14.6654 13.3333 14.6654 10.6666V5.33325C14.6654 2.66659 13.332 1.33325 10.6654 1.33325ZM7.40536 11.1066C7.2387 11.2733 6.93203 11.4266 6.70537 11.4599L5.3187 11.6533C5.26536 11.6599 5.21203 11.6666 5.16536 11.6666C4.93203 11.6666 4.7187 11.5866 4.56536 11.4333C4.3787 11.2466 4.2987 10.9733 4.34536 10.6799L4.5387 9.29325C4.57203 9.06659 4.72536 8.75325 4.89203 8.59325L7.40536 6.07992C7.44536 6.19992 7.4987 6.31992 7.5587 6.45325C7.6187 6.57325 7.6787 6.69325 7.74536 6.80659C7.7987 6.89992 7.8587 6.99325 7.91203 7.05992C7.9787 7.15992 8.04536 7.24659 8.09203 7.29325C8.1187 7.33325 8.14536 7.35992 8.15203 7.37325C8.2987 7.53992 8.45203 7.69992 8.5987 7.81992C8.6387 7.85992 8.66536 7.87992 8.67203 7.88659C8.7587 7.95325 8.8387 8.02659 8.9187 8.07325C9.00536 8.13992 9.0987 8.19992 9.19203 8.25325C9.30536 8.31992 9.42536 8.38659 9.55203 8.44659C9.6787 8.50659 9.7987 8.55325 9.9187 8.59325L7.40536 11.1066ZM11.032 7.48659L10.512 8.00659C10.4787 8.03992 10.432 8.05992 10.3854 8.05992C10.372 8.05992 10.3454 8.05992 10.332 8.05325C9.18536 7.72659 8.27203 6.81325 7.94536 5.66659C7.92536 5.60659 7.94536 5.53992 7.99203 5.49325L8.5187 4.96659C9.3787 4.10659 10.192 4.12659 11.032 4.96659C11.4587 5.39325 11.672 5.80659 11.6654 6.23325C11.6654 6.65325 11.4587 7.05992 11.032 7.48659Z" fill="black"/>
</g>
</g>
</g>
</svg>
