<svg width="96" height="100" viewBox="0 0 96 100" fill="none" xmlns="http://www.w3.org/2000/svg">
<path id="Vector" d="M93.9946 26.0447C94.7075 24.1674 95.0673 22.1639 95.0673 20.0839C95.0673 17.9342 94.6809 15.8642 93.918 13.9304V11.8039C93.918 5.69689 89.1179 0.526851 82.9919 0.0351008C82.4722 -0.00809345 81.9093 -0.0114258 81.313 0.0251232C75.1437 0.374 69.0944 3.98572 67.6654 4.89612C65.9731 4.84296 62.209 4.90942 58.2582 6.14544C56.3129 6.75348 54.7572 7.38809 53.4114 8.12572C51.5893 7.5941 49.6706 7.32167 47.7019 7.32167C44.9071 7.32167 42.7318 7.87323 41.6892 8.19885C40.2468 7.40141 38.6511 6.79336 36.7357 6.14876C32.9049 4.85626 29.2341 4.84628 27.9583 4.88947C26.5525 4.0721 20.5964 0.786035 14.6803 0.0949262C14.1507 0.0317961 12.3318 -0.0147225 11.3192 0.134796C5.57964 0.982069 1.36915 5.88294 1.30919 11.7873C1.30586 12.0797 1.30919 12.9702 1.30919 13.3955C0.453093 15.4156 0 17.6717 0 19.9377C0 22.1307 0.423109 24.3103 1.22258 26.2773C0.852825 27.3106 0 29.9821 0 32.577C0 34.7633 0.419775 36.943 1.21925 38.9066C0.839498 39.9201 0 42.4918 0 45.3293C0 47.4924 0.41309 49.6488 1.19591 51.5958C0.769521 52.5029 0 54.5231 0 57.334C0 62.9792 3.94412 67.8136 9.55708 69.0829C11.236 69.5181 13.0447 69.5514 14.6503 69.2091C18.7909 68.4748 22.1287 65.7868 23.751 62.2283H27.8583C30.6232 62.2283 32.8717 59.9855 32.8717 57.2277V48.3396C32.8717 46.8079 34.1208 45.5619 35.6565 45.5619C37.1921 45.5619 38.4413 46.8079 38.4413 48.3396V57.2277C38.4413 59.9855 40.6899 62.2283 43.4547 62.2283C46.2195 62.2283 48.468 59.9855 48.468 57.2277V48.3396C48.468 46.8079 49.7172 45.5619 51.2529 45.5619C52.7885 45.5619 54.0376 46.8079 54.0376 48.3396V57.2277C54.0376 59.9855 56.2862 62.2283 59.051 62.2283C61.8158 62.2283 64.0644 59.9855 64.0644 57.2277V41.6711C64.0644 38.9133 61.8158 36.6705 59.051 36.6705H35.6565C34.1208 36.6705 32.8717 35.4245 32.8717 33.8928V30.5569C34.6005 30.7296 36.3827 30.6699 38.1049 30.3409C40.9197 32.0321 44.2275 32.9259 47.6986 32.9259C51.123 32.9259 54.3975 32.0554 57.189 30.4007C59.1776 30.7396 61.2462 30.7496 63.2083 30.424C66.0964 29.9422 68.6813 29.0716 70.9065 27.829C70.4635 29.3474 70.237 30.9357 70.237 32.577C70.237 34.7866 70.6634 36.9795 71.4728 38.9532C70.6634 40.9268 70.237 43.1198 70.237 45.3293C70.237 47.4226 70.6034 49.4394 71.3263 51.33C70.6034 53.2239 70.237 55.2408 70.237 57.3307C70.237 59.1349 70.5101 60.8892 71.0498 62.5539C70.0138 64.471 67.9951 65.6904 65.7966 65.6904H53.5413C47.5419 65.6904 42.6618 70.5581 42.6618 76.5422V86.9819C42.6618 89.3377 43.1049 91.6403 43.981 93.8232L46.4593 100H54.8738L57.3522 93.8232C58.2283 91.6403 58.6713 89.3377 58.6713 86.9819C58.6713 86.3772 58.9078 85.809 59.3309 85.3837C59.7639 84.9551 60.3335 84.7192 60.9398 84.7192H74.6641C85.2704 84.7192 93.9014 76.1102 93.9014 65.5276V63.4842C94.6642 61.5505 95.0506 59.4804 95.0506 57.3307C95.0506 54.44 94.3344 52.1872 93.988 51.2602C94.6942 49.3896 95.0506 47.396 95.0506 45.326C95.0506 42.1329 94.3044 39.528 93.9746 38.5378C94.6875 36.6605 95.0506 34.6537 95.0506 32.5737C95.0706 29.59 94.3244 27.0249 93.9946 26.0447ZM11.6523 2.33438C12.4118 2.22141 14.0108 2.25465 14.4305 2.30449C20.6464 3.02882 27.0322 6.91963 27.0921 6.95618L27.5585 7.13558L27.7717 7.12231C28.4679 7.08244 32.1555 6.94951 36.0263 8.25531C38.005 8.92316 39.6105 9.53788 40.9996 10.3652L41.1862 10.4782L41.7124 10.5413L41.979 10.445C42.5686 10.2323 44.7205 9.54117 47.7052 9.54117C49.6106 9.54117 51.4627 9.8236 53.2049 10.3818L53.6779 10.5346L54.1077 10.2854C55.3868 9.53784 56.9624 8.87665 58.9278 8.26196C62.7753 7.05584 66.4495 7.06251 67.8486 7.12231L68.145 7.13558L68.6014 6.93623C68.8646 6.76013 75.1337 2.59686 81.4429 2.24134C81.9392 2.21476 82.3956 2.21476 82.812 2.24799C83.9446 2.3377 85.0173 2.63674 86.0066 3.0853C82.369 3.67341 78.8813 6.05904 76.0531 9.99304C45.943 24.2771 21.7423 11.5381 19.5938 10.3386C17.252 7.5642 13.7709 4.13856 8.98739 3.14841C9.81684 2.75634 10.7063 2.47393 11.6523 2.33438ZM35.6665 38.8967H59.061C60.5967 38.8967 61.8459 40.1427 61.8459 41.6744V57.231C61.8459 58.7627 60.5967 60.0087 59.061 60.0087C57.5254 60.0087 56.2762 58.7627 56.2762 57.231V48.3429C56.2762 45.5852 54.0277 43.3424 51.2629 43.3424C48.498 43.3424 46.2495 45.5852 46.2495 48.3429V57.231C46.2495 58.7627 45.0003 60.0087 43.4646 60.0087C41.929 60.0087 40.6798 58.7627 40.6798 57.231V48.3429C40.6798 45.5852 38.4313 43.3424 35.6665 43.3424C32.9016 43.3424 30.6531 45.5852 30.6531 48.3429V57.231C30.6531 58.7627 29.404 60.0087 27.8683 60.0087H24.5138C24.7137 59.1448 24.8303 58.2544 24.8303 57.3374C24.8303 55.4534 24.3739 53.5861 23.5078 51.9115C24.3739 49.8846 24.8303 47.6186 24.8303 45.3327C24.8303 43.1264 24.4039 40.9335 23.5944 38.9565C24.4039 36.9795 24.8303 34.7866 24.8303 32.5804C24.8303 30.9855 24.6071 29.3973 24.1774 27.8921C26.0828 28.9388 28.2613 29.6996 30.6531 30.1947V33.8928C30.6531 36.6539 32.9016 38.8967 35.6665 38.8967ZM91.7661 26.4235C91.776 26.4501 92.8421 29.2611 92.8421 32.5837C92.8421 34.5208 92.4823 36.3781 91.7761 38.1026L91.6095 38.5113L91.7694 38.9233C91.7794 38.9499 92.8421 41.7376 92.8421 45.3327C92.8421 47.2698 92.4823 49.1271 91.7761 50.8516L91.5962 51.2934L91.7927 51.7287C91.8027 51.752 92.8421 54.0978 92.8421 57.334C92.8421 59.2711 92.4823 61.1285 91.7761 62.8529L91.6928 63.0556V65.531C91.6928 74.8875 84.0612 82.4997 74.6841 82.4997H60.9597C59.7639 82.4997 58.6347 82.9648 57.7752 83.8121C56.9291 84.6627 56.4627 85.7891 56.4627 86.9819C56.4627 89.0519 56.073 91.0787 55.3035 92.9992L53.3847 97.7772H47.985L46.0663 92.9992C45.2968 91.0787 44.907 89.0553 44.907 86.9819V76.5422C44.907 71.7842 48.7878 67.9133 53.558 67.9133H65.8132C69.0278 67.9133 71.9625 66.0194 73.2849 63.0888L73.4682 62.6801L73.3183 62.2582C72.762 60.6998 72.4788 59.0419 72.4788 57.3274C72.4788 55.3703 72.8453 53.493 73.5681 51.7486L73.7447 51.3233L73.5681 50.8981C72.8453 49.1537 72.4788 47.2797 72.4788 45.3194C72.4788 43.2527 72.9052 41.2026 73.718 39.3984L73.9212 38.9432L73.718 38.488C72.9085 36.6838 72.4788 34.6337 72.4788 32.5671C72.4788 30.6001 72.8752 28.6497 73.6114 26.9086C75.6833 26.2574 81.4562 24.1342 87.7887 19.0572L86.393 17.3261C79.0378 23.2271 72.3323 24.9715 72.2657 24.9881L70.8399 25.3403L70.5202 25.4766C68.3749 26.8089 65.7966 27.7326 62.8552 28.2211C61.0164 28.5268 59.0643 28.4968 57.2022 28.1314L56.7692 28.045L56.3961 28.2809C53.8778 29.8591 50.8764 30.6931 47.7152 30.6931C44.5706 30.6931 41.4626 29.8226 38.9676 28.241L38.6511 28.0915L38.2148 28.0416L38.0383 28.0782C36.0996 28.4935 34.0642 28.54 32.1388 28.2211C29.214 27.7326 26.6458 26.8189 24.5138 25.4998L22.7883 25.0081L22.7917 24.9948C22.725 24.9748 16.0528 23.0178 9.81025 16.1599L8.16128 17.6551C13.7143 23.7554 19.4839 26.1942 21.4692 26.8986C22.2121 28.6463 22.6118 30.6001 22.6118 32.5704C22.6118 34.6371 22.1854 36.6838 21.3726 38.4913L21.1694 38.9465L21.3726 39.3984C22.1821 41.2059 22.6118 43.256 22.6118 45.3194C22.6118 47.4193 22.172 49.4926 21.3393 51.32L21.2393 51.5393V52.3766L21.3826 52.6292C22.1854 54.0612 22.6118 55.686 22.6118 57.3274C22.6118 62.0821 19.1074 66.1556 14.2439 67.0228C14.1373 67.0461 14.0274 67.0527 13.9208 67.0727V31.2812H11.6923V67.1757C11.166 67.1325 10.6363 67.0594 10.1034 66.9198C5.47974 65.8732 2.24852 61.9292 2.24852 57.3307C2.24852 54.1775 3.38782 52.2304 3.39449 52.2172L3.69759 51.7221L3.46109 51.1905C2.66828 49.3962 2.24852 47.3694 2.24852 45.326C2.24852 42.2127 3.45444 39.3552 3.46776 39.3253L3.65758 38.8801L3.46443 38.4382C2.67162 36.644 2.25185 34.6171 2.25185 32.5737C2.25185 29.7727 3.46777 26.6893 3.4811 26.6561L3.65424 26.2208L3.46776 25.7955C2.67495 24.0013 2.25518 21.9745 2.25518 19.9311C2.25518 17.8876 2.67495 15.8608 3.46776 14.0666L3.56438 13.8507V13.6147C3.56438 13.6147 3.56105 12.1893 3.56438 11.8039C3.59103 9.18566 4.62033 6.8133 6.29923 5.08221C11.7023 5.07224 15.5698 8.9597 18.0348 11.9069L18.1547 12.0498L18.3146 12.1461C18.4878 12.2491 29.9369 18.921 47.1023 18.9177C55.9131 18.9177 66.2296 17.16 77.2956 11.8571L77.5588 11.7308L77.7254 11.4916C80.9366 6.90963 85.0539 4.65691 89.0812 5.24834C90.7068 6.97279 91.7061 9.282 91.7061 11.7839V14.3424L91.7894 14.5451C92.4956 16.2695 92.8553 18.1269 92.8553 20.064C92.8553 22.0011 92.4956 23.8584 91.7894 25.5829L91.6228 25.9916L91.7661 26.4235ZM81.826 31.2879H84.0545V61.8462H81.826V31.2879ZM81.826 65.5542H84.0545C84.0545 71.2226 79.4309 75.8345 73.7513 75.8345V73.6116C78.2051 73.6083 81.826 69.9966 81.826 65.5542Z" fill="#7D583F"/>
</svg>
