<svg width="88" height="100" viewBox="0 0 88 100" fill="none" xmlns="http://www.w3.org/2000/svg">
<path id="Vector" d="M49.5165 61.7414H38.263V59.4958H49.5165V61.7414ZM49.5165 65.1081H38.263V67.3537H49.5165V65.1081ZM49.5165 70.7203H38.263V72.9659H49.5165V70.7203ZM38.263 78.5781H49.5165V76.3326H38.263V78.5781ZM10.1362 5.61223H4.49939C2.01919 5.61223 0 7.6262 0 10.1067C0 12.1945 1.43698 13.9568 3.37536 14.4536V46.0258H5.6267V12.349H4.50276C3.26098 12.349 2.25134 11.342 2.25134 10.1C2.25134 8.86143 3.25761 7.85446 4.49939 7.85446H10.1328C11.3712 7.85446 12.3808 8.86143 12.3808 10.1C12.3808 11.3386 11.3712 12.3456 10.1295 12.3456H9.00543V55.0013H11.2568V14.4468C13.1952 13.9467 14.6321 12.1878 14.6321 10.0967C14.6288 7.62955 12.613 5.61223 10.1362 5.61223ZM83.2834 5.61223H77.6466C75.1698 5.61223 73.1507 7.62956 73.1507 10.1034C73.1507 12.1912 74.5876 13.9534 76.526 14.4502V55.0047H78.7774V12.349H77.6533C76.4116 12.349 75.402 11.342 75.402 10.1034C75.402 8.86479 76.4082 7.85782 77.65 7.85782H83.2834C84.5218 7.85782 85.5315 8.86479 85.5315 10.1067C85.5315 11.3453 84.5218 12.3523 83.28 12.3523H82.1561V46.0291H84.4074V14.4569C86.3458 13.9567 87.7828 12.1979 87.7828 10.1067C87.7794 7.6262 85.7636 5.61223 83.2834 5.61223ZM12.8048 2.24559H7.87812V0H12.8048C16.0388 0 19.1618 0.956632 21.8406 2.7692L24.176 4.35351C26.4779 5.91097 29.1667 6.73669 31.9464 6.73669H39.387V4.49114C39.387 2.01396 41.4062 0 43.8898 0C46.3733 0 48.3924 2.01396 48.3924 4.49114V6.73669H58.0844C60.8675 6.73669 63.5529 5.91097 65.8547 4.35351L68.1903 2.7692C70.869 0.956632 73.9919 0 77.2259 0H82.1527V2.24559H77.2259C74.4429 2.24559 71.7575 3.07131 69.4556 4.62877L67.1201 6.21308C64.4413 8.02565 61.3184 8.98228 58.0844 8.98228H48.3924V14.5945H66.3999V16.8401H48.3924V22.4523H67.524V24.6979H48.3924V30.3102H70.8992V32.5557H48.3924C48.3891 33.2572 48.4463 35.4189 49.1294 38.1679H73.1507V40.4135H49.8025C50.4351 42.2194 51.3572 44.1528 52.6831 46.0258H73.154V48.2714H54.4263C55.2878 49.3723 56.8224 51.3997 58.5219 53.9507V53.8836H73.1507V56.1291H59.9218C61.0189 57.888 62.1126 59.7912 63.0818 61.7414H72.0266V63.987H64.1318C64.6433 65.1718 65.0874 66.3567 65.4341 67.5148C66.0264 69.4918 65.1009 71.5796 63.2803 72.3718C62.7621 72.5966 62.2203 72.7141 61.665 72.7141C59.9756 72.7141 58.4815 71.583 57.8556 69.8308C55.6715 63.7252 52.4308 58.9453 49.5165 55.0114C49.5131 55.629 49.0116 56.1291 48.3924 56.1291H39.3904C38.7712 56.1291 38.2697 55.629 38.2663 55.0114C35.3554 58.9453 32.1113 63.7252 29.9306 69.8308C29.3047 71.583 27.8072 72.7141 26.1178 72.7141C25.5659 72.7141 25.0207 72.6 24.5025 72.3718C22.6819 71.5796 21.7564 69.4884 22.3487 67.5148C22.6987 66.3534 23.1429 65.1718 23.651 63.987H15.7562V61.7414H24.701C25.6702 59.7879 26.7639 57.888 27.861 56.1291H14.6321V53.8836H29.2609V53.9507C30.9637 51.3997 32.4983 49.3723 33.3565 48.2714H14.6288V46.0258H35.0997C36.4256 44.1528 37.3477 42.2194 37.9803 40.4135H14.6321V38.1679H38.6534C39.3365 35.4222 39.3937 33.2572 39.3904 32.5591V32.5557H16.8836V30.3102H39.3904V24.6979H20.2588V22.4523H39.3904V16.8401H21.3829V14.5945H39.3904V8.98228H31.9497C28.7157 8.98228 25.5928 8.02565 22.9141 6.21308L20.5786 4.62877C18.2734 3.07131 15.5845 2.24559 12.8048 2.24559ZM35.8098 48.795C35.7256 48.899 27.1543 59.328 24.4991 68.1559C24.2366 69.032 24.6337 69.9785 25.3976 70.3142C25.6298 70.4149 25.8688 70.4652 26.1111 70.4652C26.9894 70.4652 27.5615 69.7469 27.8038 69.0722C30.4826 61.5769 34.6252 56.0822 37.95 51.6716L38.4851 50.9633C38.7779 50.5773 39.2793 50.4196 39.7404 50.5706C40.198 50.7217 40.511 51.1513 40.511 51.6346V53.8802H47.2617V51.6346C47.2617 51.1513 47.5713 50.7217 48.0323 50.5706C48.1501 50.5303 48.2713 50.5135 48.3891 50.5135C48.7357 50.5135 49.0722 50.6747 49.2876 50.9633L49.8227 51.6716C53.1509 56.0855 57.2901 61.5769 59.9723 69.0722C60.2146 69.7469 60.7833 70.4652 61.6616 70.4652C61.9039 70.4652 62.1429 70.4149 62.3751 70.3142C63.1424 69.9785 63.5395 69.032 63.2736 68.1559C60.6184 59.328 52.0505 48.8957 51.963 48.795C46.38 42.0985 46.1276 34.0863 46.1344 32.549V4.49114C46.1344 3.25255 45.1248 2.24559 43.883 2.24559C42.6412 2.24559 41.6316 3.25255 41.6316 4.49114V32.5523C41.6451 34.0897 41.3927 42.1019 35.8098 48.795ZM60.3526 85.7579C58.8348 85.4625 57.3036 85.9593 56.2234 87.1039L48.8568 95.3276L50.5361 96.8213L57.8824 88.6177C58.4108 88.0605 59.1781 87.8155 59.9218 87.9599C61.1131 88.1915 61.7155 88.9702 61.7155 90.2726H63.9669C63.9669 87.9229 62.5837 86.1909 60.3526 85.7579ZM28.386 85.7579C26.1548 86.1909 24.7717 87.9229 24.7717 90.2759H27.023C27.023 88.9735 27.6288 88.1948 28.8201 87.9632C29.5638 87.8189 30.3311 88.0639 30.8393 88.6009L38.2058 96.8246L39.8851 95.3309L32.4983 87.0838C31.4349 85.9593 29.897 85.4659 28.386 85.7579ZM63.9097 76.45C60.1204 76.45 57.4988 78.5882 57.2464 78.8064C54.635 80.8606 51.6533 81.9482 48.6213 81.9482H40.1172C37.0851 81.9482 34.1035 80.8606 31.5257 78.8332C31.2397 78.5915 28.6182 76.4534 24.8289 76.4534C18.9902 76.4534 14.2384 81.1896 14.2384 87.0133C14.2384 88.6681 14.7264 90.5914 15.5744 92.2832C16.3855 93.8943 18.2532 97.7175 19.3671 100H21.8708C20.9184 98.0465 18.5359 93.1592 17.5902 91.2762C16.9037 89.9067 16.4898 88.3123 16.4898 87.0133C16.4898 82.4281 20.2319 78.699 24.8289 78.699C27.8644 78.699 29.9777 80.4679 30.0989 80.572C33.1108 82.9417 36.5736 84.1937 40.1172 84.1937H48.6213C52.1615 84.1937 55.6244 82.9417 58.6733 80.5417C58.7608 80.4645 60.8742 78.699 63.9097 78.699C68.5066 78.699 72.2453 82.4281 72.2453 87.0133C72.2453 88.3156 71.8349 89.9067 71.1484 91.2762C70.1993 93.1592 67.8167 98.0498 66.8643 100H69.3681C70.482 97.7175 72.3497 93.8943 73.1608 92.2832C74.0122 90.5914 74.4968 88.6714 74.4968 87.0133C74.5001 81.1896 69.7484 76.45 63.9097 76.45Z" fill="#7D583F"/>
</svg>
