<svg width="77" height="100" viewBox="0 0 77 100" fill="none" xmlns="http://www.w3.org/2000/svg">
<path id="Vector" d="M76.6816 17.0327C76.6816 7.76874 71.2948 0.222632 64.6154 0.00332606L64.3189 0C60.0147 0.156172 56.5601 3.68832 56.5601 8.01795C56.5601 10.1911 57.4163 12.2246 58.972 13.7465C59.1286 13.8993 59.2152 14.0954 59.2152 14.2914V15.9395C56.0637 16.0326 53.1121 17.4348 51.0733 19.8505C48.9646 22.3492 48.0718 25.6255 48.6281 28.8453L54.0549 60.1728C54.5546 63.047 54.0716 65.9478 52.7057 68.4898C50.8135 66.5426 48.215 65.4029 45.3167 65.4029H31.5914C28.6198 65.4029 25.9647 66.6024 24.0592 68.6426C22.65 66.0807 22.127 63.0703 22.6267 60.1728L28.0535 28.8486C28.6099 25.6288 27.7171 22.3492 25.6083 19.8538C23.5695 17.4414 20.6145 16.0359 17.4664 15.9428V14.2947C17.4664 14.0987 17.553 13.906 17.7096 13.7498C19.2654 12.2279 20.1215 10.1944 20.1215 8.02127C20.1215 3.69165 16.6669 0.159498 12.3627 0.00332606L12.0662 0.00665211C5.38683 0.225958 0 7.77206 0 17.0361C0 26.3001 5.38683 33.8462 12.0662 34.0688L12.3627 34.0721C16.6669 33.916 20.1215 30.3838 20.1215 26.0542C20.1215 23.8811 19.2654 21.8442 17.7096 20.3223C17.553 20.1695 17.4664 19.9768 17.4664 19.7807V18.1658C19.9583 18.2555 22.2936 19.3753 23.906 21.286C25.5916 23.283 26.3046 25.9013 25.8615 28.4732L20.4347 59.7973C19.7884 63.5189 20.5979 67.3933 22.6267 70.5666C22.3935 70.9753 22.177 71.3972 21.9938 71.8458C20.3747 75.8199 21.2775 80.1462 24.359 83.1434L34.08 92.5935C34.673 93.1717 35.0594 93.906 35.1993 94.7234L36.0955 100H40.8194L41.7155 94.7234C41.8521 93.9093 42.2418 93.1717 42.8348 92.5935L52.5558 83.1434C55.634 80.1495 56.5401 75.8199 54.9211 71.8458C54.7112 71.3275 54.4614 70.839 54.1815 70.3738C56.1504 67.2072 56.8966 63.4856 56.257 59.7973L50.8301 28.4732C50.3871 25.9013 51.1 23.283 52.7857 21.286C54.398 19.3753 56.7334 18.2589 59.2252 18.1658V19.7807C59.2252 19.9768 59.1386 20.1695 58.982 20.3223C57.4263 21.8442 56.5701 23.8811 56.5701 26.0542C56.5701 30.3838 60.0247 33.916 64.3289 34.0721L64.6254 34.0688C71.2981 33.8428 76.6816 26.2967 76.6816 17.0327ZM17.8928 26.0509C17.8928 29.2175 15.341 31.7893 12.1795 31.8491C6.67606 31.7029 2.22867 25.1205 2.22867 17.0327C2.22867 8.94834 6.67606 2.36253 12.1795 2.21633C15.3376 2.27946 17.8928 4.8513 17.8928 8.01462C17.8928 9.58631 17.2732 11.0583 16.1472 12.1582C15.5609 12.733 15.2344 13.4906 15.2344 14.2881V19.7741C15.2344 20.5715 15.5575 21.3291 16.1472 21.904C17.2732 23.0038 17.8928 24.4758 17.8928 26.0509ZM50.9967 81.5451L41.2758 90.9952C40.343 91.9056 39.7333 93.062 39.5168 94.3446L38.9338 97.7671H37.9744L37.3914 94.3446C37.1748 93.062 36.5652 91.9056 35.6324 90.9952L25.9115 81.5451C24.6322 80.2991 23.846 78.7606 23.5628 77.1258H39.5768V74.9028H23.4929C23.5762 74.1552 23.756 73.4075 24.0559 72.6765C25.3284 69.5564 28.2168 67.6192 31.5914 67.6192H45.3167C48.6914 67.6192 51.5797 69.5564 52.8523 72.6765C54.1249 75.7966 53.4153 79.1926 50.9967 81.5451ZM64.5055 31.8491C61.3473 31.786 58.7921 29.2142 58.7921 26.0509C58.7921 24.4792 59.4118 23.0072 60.5378 21.9073C61.1274 21.3325 61.4506 20.5749 61.4506 19.7774V14.2914C61.4506 13.4939 61.1274 12.7363 60.5378 12.1615C59.4118 11.0616 58.7921 9.58964 58.7921 8.01795C58.7921 4.85131 61.3473 2.27947 64.5055 2.21966C70.0089 2.36586 74.4563 8.94834 74.4563 17.0361C74.4563 25.1171 70.0089 31.7029 64.5055 31.8491ZM72.0144 17.0327H69.7857C69.7857 10.7294 66.6009 6.86161 64.3189 6.86161V4.63863C68.0367 4.63863 72.0144 9.61954 72.0144 17.0327ZM41.8088 74.9028H45.1502V77.1258H41.8088V74.9028ZM34.01 80.4586H41.8088V82.6815H34.01V80.4586Z" fill="#7D583F"/>
</svg>
