<svg width="99" height="100" viewBox="0 0 99 100" fill="none" xmlns="http://www.w3.org/2000/svg">
<path id="Vector" d="M32.7292 68.3789C33.1639 71.6251 34.8362 74.5091 37.4342 76.496C39.5909 78.144 42.1724 79.0145 44.8401 79.0145C45.3876 79.0145 45.9384 78.978 46.4925 78.9049C49.7342 78.4696 52.6143 76.7984 54.5984 74.1935C56.5229 71.6716 57.3724 68.565 57.0273 65.4185C57.9066 66.186 59.038 66.6644 60.2923 66.6644C63.0463 66.6644 65.2859 64.4217 65.2859 61.6639V51.1944C65.2859 48.6959 63.2553 46.6625 60.7601 46.6625H48.1681L50.8325 40.9941C52.2924 42.0009 53.9946 42.5325 55.783 42.5325C58.5436 42.5325 61.0853 41.2765 62.7443 39.1003L70.399 29.3485C71.4144 28.0161 71.8258 26.305 71.5238 24.657C71.2219 23.009 70.2298 21.5503 68.7997 20.6599C66.2315 19.0584 62.7178 19.7661 60.8033 22.2747L56.0285 28.5344C56.0285 28.5344 52.1165 25.6106 50.8557 24.5806C50.4608 24.2583 48.4269 22.6534 45.7061 22.3378C41.2832 21.8294 37.0659 24.7433 35.6789 29.1757L29.952 47.4998C28.4953 52.1647 30.8777 57.1253 35.3936 58.9827C35.3073 59.089 35.2111 59.1886 35.1248 59.3016C33.1506 61.9098 32.2945 65.1328 32.7292 68.3789ZM52.8366 72.8445C51.2108 74.9776 48.855 76.3465 46.2005 76.702C43.5428 77.0575 40.9115 76.3598 38.7813 74.7317C36.6545 73.1036 35.2841 70.7446 34.929 68.0865C34.574 65.4284 35.2742 62.7903 36.9 60.6605C38.5259 58.5274 40.8817 57.1585 43.5361 56.803C43.9874 56.7432 44.4386 56.7133 44.8898 56.7133C47.0764 56.7133 49.19 57.4276 50.9552 58.7766C53.0854 60.4047 54.4525 62.767 54.8075 65.4251C55.1626 68.0765 54.4625 70.7147 52.8366 72.8445ZM55.3019 60.3382C54.5222 59.069 53.5168 57.936 52.2991 57.0023C52.1398 56.8827 51.9739 56.7765 51.8113 56.6635H55.3019V60.3382ZM32.0789 48.1709L37.8058 29.8468C38.8776 26.4179 42.1027 24.2383 45.4805 24.5539C47.6737 24.7599 49.1071 26.0192 49.4621 26.3083C51.1709 27.6938 56.4533 31.6543 56.4533 31.6543L62.5751 23.6303C63.8027 22.0221 66.0225 21.547 67.6318 22.5504C68.5442 23.1186 69.1548 24.0124 69.3439 25.0623C69.5331 26.099 69.2742 27.1721 68.6471 27.9928L60.9923 37.7479C59.7481 39.3826 57.8502 40.3196 55.7863 40.3196C54.343 40.3196 52.9726 39.8578 51.8246 38.9773L49.993 37.5752L44.6775 48.8952H60.7634C62.0342 48.8952 63.0694 49.9319 63.0694 51.2044V61.6739C63.0694 63.2056 61.8252 64.4516 60.2956 64.4516C58.766 64.4516 57.5217 63.2056 57.5217 61.6739V54.4506H45.3145C45.3145 54.4506 43.9342 54.5071 43.2408 54.6001C40.9812 54.9025 38.9041 55.8195 37.1754 57.225L36.7639 57.1419C33.0046 55.9591 30.901 51.9354 32.0789 48.1709ZM15.4057 0H17.6454C15.847 13.4166 12.5289 22.3112 9.31703 30.9134C5.51123 41.1004 2.22308 49.8954 2.21976 64.2921C2.21312 81.0878 7.4888 97.6775 8.25859 100H5.92599C4.63859 95.9464 -0.00331627 80.2273 1.77791e-06 64.2921C0.00663788 49.4933 3.52039 40.0904 7.23993 30.1326C10.3854 21.7131 13.6338 13.0013 15.4057 0ZM98.2143 64.2921C98.2209 80.2273 93.5756 95.9498 92.2882 100H89.9556C90.7221 97.6775 96.0011 81.0878 95.9944 64.2921C95.9878 49.8954 92.703 41.0971 88.8972 30.9134C85.6853 22.3145 82.3639 13.4166 80.5688 0H82.8085C84.5837 13.0046 87.8321 21.7131 90.9776 30.1326C94.6971 40.0904 98.2076 49.4933 98.2143 64.2921ZM71.8423 41.5922C70.5848 45.8418 71.504 49.2209 72.4761 52.8026C74.102 58.7966 75.7876 64.9932 67.9238 75.3032C66.3013 77.433 63.0064 80.709 58.1322 85.0417C54.9237 87.8925 53.0855 91.9793 53.0855 96.2588V100H50.8656V96.2588C50.8656 91.3447 52.976 86.6498 56.6557 83.3804C61.3574 79.2006 64.6422 75.9411 66.1586 73.9542C73.3554 64.5147 71.8889 59.1089 70.3327 53.3841C69.3207 49.6628 68.2755 45.8152 69.7155 40.9609C69.9843 40.0539 70.2928 39.0869 70.618 38.0735C73.017 30.5911 76.0032 21.2812 69.8615 14.3702C65.12 9.03744 57.1467 7.14357 49.0507 9.42951C36.9929 12.8352 28.1768 23.926 25.4693 39.0903C21.9886 58.5739 26.1893 72.5388 37.9585 80.5994C38.569 81.018 39.6506 81.8553 41.1736 83.088C45.2183 86.3607 47.5376 91.2317 47.5376 96.4515V100H45.3179V96.4515C45.3179 91.9062 43.2972 87.6632 39.7767 84.8158C38.3002 83.6197 37.265 82.8189 36.7042 82.4334C24.152 73.8346 19.6362 59.1222 23.2827 38.7016C26.1429 22.6767 35.5528 10.9347 48.4468 7.29311C57.3657 4.76794 66.2083 6.91765 71.5172 12.8917C78.4984 20.7496 75.1638 31.1526 72.7283 38.7514C72.4098 39.7481 72.1045 40.6984 71.8423 41.5922Z" fill="#7D583F"/>
</svg>
