<svg width="95" height="100" viewBox="0 0 95 100" fill="none" xmlns="http://www.w3.org/2000/svg">
<path id="Vector" d="M48.3836 17.0467H46.1127V12.5004H48.3836V17.0467ZM46.0991 68.0031C46.0991 67.5988 46.1059 67.2148 46.1195 66.8479C46.004 64.133 45.4609 62.5599 44.4086 59.5426L40.179 47.3481H54.3309L50.1013 59.5426C49.0524 62.5633 48.5058 64.133 48.3904 66.8479C48.404 67.2148 48.4108 67.5954 48.4108 68.0031H46.0991ZM46.5539 58.7985C46.8119 59.5427 47.0462 60.2188 47.2566 60.8542C47.4637 60.2188 47.6979 59.5427 47.9593 58.7985L51.1434 49.6212H43.3766L46.5539 58.7985ZM73.3066 42.0679H57.7527C55.4172 39.4652 51.5643 37.926 47.3177 37.926V37.9294L47.3042 37.926C43.0576 37.926 39.2047 39.4652 36.8692 42.0679H21.3119C16.495 42.0679 12.5743 45.9923 12.5743 50.8138V51.901C12.5743 55.8357 15.1338 59.2505 18.861 60.3717C20.0729 62.3628 22.6867 63.6641 25.5687 63.6641C29.6659 63.6641 32.996 61.0683 32.996 57.8812C32.996 54.694 29.6626 52.1015 25.5687 52.1015C22.7376 52.1015 20.1985 53.3179 18.9391 55.2785L20.8468 56.5084C21.6819 55.2105 23.5353 54.3746 25.5687 54.3746C28.3658 54.3746 30.7284 55.9818 30.7284 57.8812C30.7284 59.7839 28.3658 61.3911 25.5687 61.3911C23.3588 61.3911 21.3391 60.3751 20.6568 58.9175L20.4259 58.4214L19.893 58.2923C16.9227 57.5788 14.8486 54.9489 14.8486 51.8943V50.807C14.8486 47.2359 17.751 44.3308 21.3187 44.3308H25.9727C29.4793 44.3308 32.5955 46.5631 33.7327 49.9134L40.4403 68.3701V78.6042L43.8451 87.6933V99.9966H46.1161V87.2923L42.7113 78.2032V67.9827L35.8746 49.1727C35.2127 47.2223 34.0144 45.5642 32.48 44.3444H37.9453L38.2848 43.9197C40.1178 41.6262 43.5735 40.2025 47.3076 40.2025L47.3211 40.1957V40.2025C51.0518 40.2025 54.5108 41.6262 56.3439 43.9197L56.6834 44.3444H62.0264C60.4921 45.5642 59.2904 47.2087 58.6319 49.1489L51.7884 67.9827V78.2032L48.3836 87.2923V99.9966H50.6546V87.7034L54.0594 78.6144V68.3803L60.7738 49.8998C61.9008 46.5734 65.0171 44.341 68.5237 44.341H73.3066C76.8743 44.341 79.7767 47.2461 79.7767 50.8172V51.9044C79.7767 54.959 77.7026 57.589 74.7323 58.3025L74.1994 58.4316L73.9685 58.9277C73.2862 60.3853 71.2664 61.4013 69.0566 61.4013C66.2595 61.4013 63.9002 59.7941 63.9002 57.8913C63.9002 55.992 66.2628 54.3848 69.0566 54.3848C71.0899 54.3848 72.9434 55.2241 73.7785 56.5187L75.6862 55.2887C74.4268 53.3281 71.8843 52.1117 69.0532 52.1117C64.9559 52.1117 61.6259 54.7042 61.6259 57.8913C61.6259 61.0784 64.9593 63.6744 69.0532 63.6744C71.9318 63.6744 74.549 62.3696 75.7609 60.3819C79.4881 59.2573 82.0476 55.8459 82.0476 51.9112V50.824C82.0476 45.9923 78.1269 42.0679 73.3066 42.0679ZM11.2402 26.1799C14.3496 17.5631 17.2825 9.41185 18.5657 0.0034011H16.2676C14.9946 9.04828 12.1398 17.0059 9.10501 25.4086C5.11978 36.448 0.998746 47.8611 0.133129 62.8385C-0.71212 77.4354 2.66549 90.7207 4.68187 98.6579C4.80068 99.1302 4.9127 99.5651 5.02133 100H7.36019C7.21083 99.402 7.05127 98.7768 6.88155 98.1007C4.89572 90.2926 1.57584 77.2213 2.40072 62.9744C3.24937 48.3198 7.31269 37.0664 11.2402 26.1799ZM94.3632 62.8351C93.4975 47.8577 89.3765 36.4446 85.3913 25.4052C82.3565 17.0025 79.5017 9.04488 78.2287 0H75.9306C77.2137 9.40845 80.1467 17.5597 83.2561 26.1765C87.187 37.063 91.2503 48.3198 92.0956 62.9642C92.9204 77.2111 89.5972 90.2824 87.6147 98.0904C87.4416 98.7666 87.2855 99.3952 87.1361 99.9898H89.475C89.5836 99.5583 89.6956 99.12 89.8144 98.6477C91.8308 90.7173 95.205 77.4354 94.3632 62.8351Z" fill="#7D583F"/>
</svg>
