<svg width="65" height="100" viewBox="0 0 65 100" fill="none" xmlns="http://www.w3.org/2000/svg">
<path id="Vector" d="M33.3323 17.7725H33.309V15.5265H39.283C40.1302 15.5265 40.9177 15.1444 41.4393 14.4765C41.9676 13.7987 42.1537 12.9282 41.9477 12.0876C40.8645 7.71173 36.8973 4.53532 32.5182 4.53532C27.192 4.53532 22.9989 8.69521 22.9724 14.008V14.224C22.9724 17.1778 25.378 19.5833 28.3317 19.5833H31.1094V42.2168H18.8856V44.4396H31.1094V49.995H18.8856V52.2178H31.1094V57.7732H18.8856V59.996H31.1094V65.5514H21.1084V67.7742H31.1094V73.3296H23.3312V75.5524H31.1094V93.3316H33.3323V75.5524H41.1104V73.3296H33.3323V67.7742H43.3332V65.5514H33.3323V59.996H45.556V57.7732H33.3323V52.2178H45.556V49.995H33.3323V44.4396H45.556V42.2168H33.3323V17.7725ZM31.0862 17.3638H28.3284C26.5973 17.3638 25.1919 15.9584 25.1919 14.2273V14.018C25.2152 9.88138 28.3616 6.76146 32.5148 6.76146C35.8873 6.76146 38.9441 9.22683 39.7847 12.6258C39.8279 12.7986 39.7913 12.9747 39.685 13.1109C39.6285 13.184 39.499 13.307 39.2797 13.307H31.0829V17.3638H31.0862ZM64.4416 47.7755V93.3316C64.4416 97.0063 61.4513 100 57.7732 100C54.0984 100 51.1081 97.0097 51.1081 93.3316V57.7732H53.3309V93.3282C53.3309 95.7803 55.3244 97.7739 57.7765 97.7739C60.2286 97.7739 62.2222 95.7803 62.2222 93.3282V47.7755C62.2222 44.0775 59.8564 40.9243 56.1916 39.7448L37.7778 34.1562V26.6638H41.8746C42.6787 26.6638 43.3332 26.0092 43.3332 25.2052V18.8856H46.6758L44.0376 11.2137C42.3963 5.40253 36.7079 1.58818 30.6874 2.30918C25.0091 2.98367 20.507 7.62533 19.9854 13.3402C19.58 17.7493 21.8826 21.9623 26.1421 24.6071L26.6671 24.9327V34.1529L8.36626 39.7016C4.70144 40.9277 2.22279 44.1738 2.22279 47.7722V93.3282C2.22279 95.7803 4.21639 97.7739 6.66846 97.7739C9.12053 97.7739 11.114 95.7803 11.114 93.3282V57.7732H13.3368V93.3282C13.3368 97.003 10.3466 99.9967 6.66846 99.9967C2.99368 99.9967 0 97.0063 0 93.3282V47.7755C0 43.2202 3.08998 39.1268 7.69177 37.5885L24.4443 32.5082V26.1587C19.7927 23.0422 17.3041 18.2178 17.7725 13.1408C18.3905 6.38601 23.7134 0.903727 30.425 0.106305C31.0197 0.0365307 31.6211 0 32.2125 0C38.6683 0 44.4031 4.33929 46.1607 10.5525L48.8388 18.3374C49.0581 18.9753 48.955 19.6863 48.563 20.2346C48.1709 20.7828 47.5363 21.1117 46.8618 21.1117H45.5593V25.2085C45.5593 27.2386 43.9081 28.8899 41.8779 28.8899H40.004V32.5115L56.8595 37.6283C61.4712 39.1102 64.4416 43.094 64.4416 47.7755Z" fill="#7D583F"/>
</svg>
