<svg width="100" height="100" viewBox="0 0 100 100" fill="none" xmlns="http://www.w3.org/2000/svg">
<path id="Vector" d="M72.7287 38.4411L72.6388 38.3747C70.5474 36.7939 67.7901 36.5381 65.4422 37.7038C63.0944 38.8695 61.6357 41.2175 61.6357 43.8311V50.8983L53.943 43.2267V12.6797L57.2832 9.34874L57.2931 0.0498137L42.8034 0V9.34874L46.1203 12.6366L46.1435 43.1835L38.3708 50.9349V43.8311C38.3708 41.2142 36.9121 38.8662 34.5643 37.7038C32.2165 36.5381 29.4591 36.7972 27.3678 38.3747L27.2745 38.4444C10.1971 51.34 0 71.791 0 93.1553V96.0214C0 97.0841 0.416281 98.0838 1.16891 98.8343C1.92154 99.5849 2.92393 100 3.9896 100H31.5105C35.2937 100 38.3708 96.9314 38.3708 93.1553V62.2198L48.4181 52.2002H51.5718L61.6291 62.2297V93.152C61.6291 96.9247 64.7062 99.9967 68.4894 99.9967H96.0103C97.076 99.9967 98.0785 99.5815 98.8311 98.831C99.5837 98.0804 100 97.0808 100 96.0181V93.152C100.007 71.791 89.8095 51.3367 72.7287 38.4411ZM48.3515 13.3174H51.715V18.8503H48.3548L48.3515 13.3174ZM48.3582 21.072H51.715V26.6049H48.3615L48.3582 21.072ZM48.3615 28.8267H51.715V34.3595H48.3682L48.3615 28.8267ZM48.3715 42.2038L48.3682 36.5813H51.715V42.2038H48.3715ZM45.0346 8.42217V2.2251L55.0652 2.25831L55.0585 8.42217L52.381 11.0923H47.7321L45.0346 8.42217ZM36.1462 93.152C36.1462 95.6992 34.0682 97.7749 31.5139 97.7749H3.99294C3.52337 97.7749 3.08046 97.5922 2.74744 97.2601C2.41441 96.928 2.23123 96.4863 2.23123 96.0181V93.152C2.23123 72.4818 12.0987 52.6917 28.6233 40.2145L28.7165 40.1448C29.5524 39.5138 30.5181 39.1916 31.4972 39.1916C32.1999 39.1916 32.9059 39.3577 33.5786 39.6898C35.1871 40.4869 36.1495 42.0345 36.1495 43.8278V52.1969H21.6498V54.4186H26.5285L18.5527 62.3726L20.1279 63.9434L25.7093 58.3773V62.9371H27.9372V56.1556L29.6789 54.4186H36.1495V61.2998L26.342 71.0803H11.6225V73.3021H16.811L9.93067 80.1634L11.5059 81.7342L19.9613 73.3021H26.1023V78.5826L11.4626 93.1819L13.0378 94.7527L17.1939 90.6081V94.404H19.4218V88.3863L26.1056 81.721V94.4007H28.3335V88.4228L31.9168 91.9963L33.492 90.4254L28.3335 85.2811V72.2394L36.1529 64.4416V93.152H36.1462ZM52.501 49.9784H47.5023L38.3742 59.0781V54.0733L48.0517 44.4223H51.9948L61.6324 54.0334V59.0847L52.501 49.9784ZM97.7787 96.0181C97.7787 96.4863 97.5955 96.928 97.2625 97.2601C96.9295 97.5922 96.4865 97.7749 96.017 97.7749H68.496C65.9418 97.7749 63.8637 95.7026 63.8637 93.152V64.4482L71.6831 72.246V85.2811L66.5246 90.4254L68.0998 91.9963L71.6831 88.4228V94.404H73.911V81.7243L80.5948 88.3896V94.4073H82.8227V90.6114L86.9788 94.7561L88.554 93.1852L73.9143 78.5859V73.3054H80.0552L88.5107 81.7376L90.0859 80.1667L83.2056 73.3054H88.3975V71.0836H73.6679L63.8703 61.3131V54.4253H70.341L72.0827 56.1622V62.9438H74.3106V58.384L79.8921 63.95L81.4672 62.3792L73.4847 54.422H78.3635V52.2002H63.8637V43.8311C63.8637 42.0378 64.8261 40.4902 66.4346 39.6931C67.1073 39.361 67.8134 39.195 68.516 39.195C69.4951 39.195 70.4608 39.5171 71.2967 40.1481L71.3867 40.2145C87.9112 52.6917 97.7787 72.4818 97.7787 93.1553V96.0181Z" fill="#7D583F"/>
</svg>
