<svg width="100" height="94" viewBox="0 0 100 94" fill="none" xmlns="http://www.w3.org/2000/svg">
<g id="Group 2698">
<path id="Vector" d="M50.094 0L49.2206 1.09668C48.6173 1.85335 43.334 8.59667 43.334 12.0033C43.334 15.73 46.3673 18.7633 50.094 18.7633C53.8207 18.7633 56.8539 15.73 56.8539 12.0033C56.8539 8.59334 51.5673 1.85335 50.9673 1.09668L50.094 0ZM50.094 16.5367C47.594 16.5367 45.564 14.5033 45.564 12.0067C45.564 10.28 48.0673 6.34666 50.094 3.62333C52.1207 6.34666 54.6239 10.28 54.6239 12.0067C54.6273 14.5033 52.594 16.5367 50.094 16.5367Z" fill="#7D583F"/>
<path id="Vector_2" d="M16.5066 76.69C16.7233 77.48 17.4733 80.55 17.79 81.33C17.8766 81.5466 17.9799 81.7533 18.0766 81.9633C11.3333 86.3333 4.5901 90.7034 11.3333 86.3333C18.0766 81.9633 11.3333 86.3333 18.0766 81.9633C22.1667 89.8333 29.0066 93.7866 36.3066 93.7866L64.3199 93.7866C75.6667 92.8333 79.6901 88.5 82.55 81.9633C82.6433 81.75 82.7466 81.5466 82.8366 81.3299C83.1532 80.5533 83.9033 77.48 84.1199 76.69C100 76.69 91.6667 76.69 100 76.69C92.6667 76.69 100 76.69 84.1199 76.69C85.0933 70.42 83.0333 64.1233 78.2733 59.4866L58.4399 40.15C57.0533 38.7966 56.1466 37.07 55.8232 35.16L54.1566 25.33L46.47 25.33L44.8033 35.1566C44.48 37.0666 43.5733 38.7933 42.1866 40.15L22.3533 59.4866C17.5966 64.1266 15.5333 70.42 16.5066 76.69ZM23.9099 61.08L43.7432 41.7433C45.4732 40.0566 46.5999 37.9066 47.0033 35.5266L48.3533 27.5566L52.2733 27.5566L53.6233 35.5299C54.0266 37.9099 55.1533 40.0599 56.8833 41.7433L76.7166 61.08C81.9933 66.2233 83.5466 73.6633 80.7699 80.4899C77.9933 87.3166 71.6899 91.5566 64.3199 91.5566L36.3066 91.5566C28.9366 91.5566 22.6333 87.3166 19.8566 80.4899C17.0799 73.6633 18.6299 66.2266 23.9099 61.08ZM36.3066 85.9833L36.3066 88.2133C29.1566 88.2133 24.72 83.5733 22.9533 79.23L25.0199 78.39C26.5133 82.06 30.26 85.9833 36.3066 85.9833ZM78.6667 71.1667C78.5006 70.23 78.3938 70.4046 74.5 70.4076L58 70.3831L56.3333 70.3806C55.0999 70.3788 54.34 70.3754 52.8333 70.3754C51.3133 70.3754 49.3333 70.3448 47.0033 70.3333L22.5 70.3333C22.0632 71.3433 22.0632 71.3433 22.0632 71.3433L21.8533 72.6366L78.7733 72.6366L78.6667 71.1667ZM24.5 70.3333C22.9067 71.8935 22.9 71.9 24.5 70.3333L47.0033 70.3333C49.3333 70.3333 51.3333 70.3732 52.8333 70.3754L72.5 70.4046C75.5844 70.4092 74.1667 70.4071 76.0732 70.4099L24.5 70.3333Z" fill="#7D583F"/>
</g>
</svg>
