<svg width="97" height="100" viewBox="0 0 97 100" fill="none" xmlns="http://www.w3.org/2000/svg">
<path id="Vector" d="M96.4758 90.2816V88.0933H82.6397C82.5676 87.9166 82.561 87.9036 82.4889 87.7269L95.1908 75.0515L93.6404 73.5043L87.7073 79.4249V71.6823H85.5144V81.5282H85.5997L79.2995 87.8153C73.0846 86.8143 67.535 83.0755 64.3357 77.5473L56.0951 63.3051C54.8396 61.1364 53.7841 58.8564 52.9417 56.498L50.87 50.7049C50.2013 48.7096 50.4177 46.5212 51.4732 44.7025C52.5254 42.8805 54.3152 41.5982 56.4098 41.173L63.0443 39.6487C65.2962 39.1319 67.5973 38.8702 69.9082 38.8702H70.1376L75.6413 44.3623L75.6446 50.9044H77.8375L77.8342 45.4352L83.3182 45.4319L83.3149 43.2436L77.6179 43.2469L72.5338 38.1734L78.3357 32.3836L76.7853 30.8364L70.9211 36.6884H68.8298C67.2039 36.6884 65.5813 36.5575 63.9784 36.3024L56.3737 35.0823C53.4891 34.5 51.1454 32.2266 50.5849 29.1616C50.3522 27.8925 50.5161 26.5807 50.9291 25.3541L53.2138 18.5633C53.6497 17.2615 54.2168 16.0086 54.9052 14.818L62.0117 14.8114L66.2041 18.9919L67.7546 17.4446L64.0244 13.7287L67.748 10.0062L66.1943 8.45899L62.0281 12.6231L54.8068 12.6296L54.8035 5.72438L58.9862 1.54723L57.4324 0L53.7088 3.72248L49.9784 0.00654854L48.428 1.55376L52.6106 5.7211L52.6172 14.3927L45.6713 22.3807C44.9305 23.2181 44.0421 23.9312 43.0161 24.3695C39.9513 25.6812 36.5882 24.8144 34.5395 22.505L29.3275 16.6171C28.4458 15.6194 27.6657 14.5366 26.997 13.3852L29.3177 1.20375L27.1642 0.794869L25.3187 10.4838L20.9164 2.87529L19.0185 3.96781L23.542 11.789L13.8951 9.95715L13.4854 12.1062L24.9909 14.288L25.0991 14.4745C25.7645 15.6259 26.3152 16.8428 26.738 18.1054L29.1932 25.4032C29.5144 26.3583 29.6914 27.3658 29.616 28.37C29.3604 31.8276 26.8363 34.451 23.7682 35.0725L15.4652 36.4528C14.5343 36.6066 13.5936 36.6851 12.6495 36.6851H8.26034L2.17658 30.6173L0.626134 32.1645L5.15944 36.6884H0V38.8767H5.15944L0.626134 43.4006L2.17658 44.9478L8.26034 38.88H12.0136C13.351 38.88 14.6851 39.037 15.9897 39.3478L23.7322 41.1926C25.7973 41.6113 27.587 42.8936 28.6392 44.7156C29.6914 46.5376 29.9143 48.7259 29.2423 50.7213L27.0724 57.2405C26.4266 59.1868 25.5809 61.0611 24.555 62.8373L24.3189 63.2462L13.6395 65.572L14.1049 67.708L24.1878 65.5131L25.7087 72.4576L22.3948 77.6128L24.2402 78.7936L27.0888 74.3646L31.5238 77.2072L32.7071 75.3655L27.9181 72.2973L26.1873 64.3911L26.5315 63.7958C27.5083 62.1079 28.649 60.5149 29.934 59.0429L34.5428 53.7666C35.9392 52.19 37.9485 51.2872 40.0562 51.2872C42.1639 51.2872 44.1733 52.19 45.5795 53.7797L49.2934 57.8522C51.2995 60.0504 53.063 62.4612 54.5544 65.0355L62.4313 78.653C65.7649 84.4166 71.4128 88.4204 77.808 89.7779L88.0515 100L89.602 98.4528L81.3842 90.2522C81.8005 90.2751 82.2168 90.2947 82.6364 90.2947H96.4758V90.2816ZM40.0594 49.089C37.3224 49.089 34.7165 50.2633 32.9005 52.3143L29.8717 55.7816L31.3271 51.4017C32.1958 48.8142 31.9105 45.9717 30.5436 43.61C29.1767 41.245 26.8528 39.58 24.2075 39.0435L19.6839 37.9674L24.1714 37.2216C26.8527 36.6786 29.1735 35.0136 30.5436 32.6486C31.9138 30.2836 32.199 27.4443 31.3271 24.8536L29.8717 20.5195L32.9038 23.9443C34.7132 25.992 37.3224 27.163 40.0594 27.163C42.7965 27.163 45.4025 25.9887 47.2152 23.9443L50.2472 20.5195L48.7919 24.8536C47.9232 27.4411 48.2084 30.2836 49.5753 32.6486C50.9422 35.0136 53.2662 36.6785 55.9902 37.2281L60.5957 37.9674L55.9475 39.037C53.2662 39.58 50.9422 41.245 49.5753 43.61C48.2084 45.9749 47.9232 48.8142 48.7984 51.4213L50.339 55.7358L47.2152 52.311C45.4058 50.2633 42.7965 49.089 40.0594 49.089ZM64.0211 86.4119C65.1585 87.5208 66.4009 88.5382 67.7219 89.4312L66.4894 91.2433C65.0635 90.2784 63.7163 89.1793 62.487 87.9755L64.0211 86.4119ZM59.6287 80.7628C60.3367 81.9862 61.1463 83.154 62.0314 84.24L60.3334 85.6236C59.3697 84.4493 58.4945 83.1801 57.7275 81.8553L50.8012 69.8832L52.6991 68.7907L59.6287 80.7628ZM38.9253 31.2126C36.2046 31.2126 33.992 33.4206 33.992 36.1356C33.992 38.8506 36.2046 41.0585 38.9253 41.0585C41.646 41.0585 43.8586 38.8506 43.8586 36.1356C43.8553 33.4206 41.6427 31.2126 38.9253 31.2126ZM38.9253 38.8669C37.4142 38.8669 36.185 37.6403 36.185 36.1323C36.185 34.6243 37.4142 33.3977 38.9253 33.3977C40.4364 33.3977 41.6657 34.6243 41.6657 36.1323C41.6657 37.6403 40.4364 38.8669 38.9253 38.8669Z" fill="#7D583F"/>
</svg>
