<svg width="75" height="100" viewBox="0 0 75 100" fill="none" xmlns="http://www.w3.org/2000/svg">
<path id="Vector" d="M37.2197 100C16.6953 100 0 83.3378 0 62.8613C0 46.9068 22.4157 15.3897 32.052 2.57821C33.284 0.940225 35.1686 0 37.2197 0C39.2708 0 41.1555 0.940225 42.3875 2.57821C52.0237 15.3897 74.4395 46.9068 74.4395 62.8613C74.4395 83.3411 57.7409 100 37.2197 100ZM37.2164 2.22605C35.8712 2.22605 34.6359 2.84069 33.8301 3.91718C24.327 16.5492 2.22428 47.5812 2.22428 62.8646C2.22428 82.1184 17.9239 97.7806 37.2197 97.7806C56.5155 97.7806 72.2118 82.1151 72.2118 62.8646C72.2118 47.5812 50.1091 16.5492 40.6061 3.91718C39.797 2.84069 38.5616 2.22605 37.2164 2.22605ZM23.6544 82.5536C23.1749 82.5536 22.6821 82.5237 22.1827 82.4606C19.1459 82.0752 16.1525 80.5469 13.7551 78.1547C11.3577 75.7625 9.82607 72.7756 9.43982 69.7488C9.04025 66.6157 9.90929 63.8049 11.8805 61.8346C15.8728 57.851 23.2116 58.6883 28.2361 63.7019C30.6335 66.0941 32.1652 69.081 32.5514 72.1111C32.951 75.2442 32.082 78.055 30.1108 80.0252C28.4559 81.6798 26.1983 82.5536 23.6544 82.5536ZM18.3668 61.519C16.4722 61.519 14.7341 62.1336 13.4588 63.4028C11.9837 64.8747 11.3411 67.0277 11.6507 69.4664C11.9737 72.0081 13.2823 74.5365 15.3301 76.5832C17.3812 78.6298 19.9151 79.9322 22.4624 80.2545C24.9064 80.5635 27.0641 79.9222 28.5391 78.4504C30.0142 76.9785 30.6568 74.8255 30.3472 72.3868C30.0242 69.8451 28.7156 67.3167 26.6678 65.2701C24.2038 62.8181 21.1205 61.519 18.3668 61.519ZM26.2017 76.118C27.4037 74.9152 27.7133 73.0547 27.0474 71.0114L24.9297 71.6991C25.3226 72.9019 25.2094 73.965 24.6267 74.5464C23.5079 75.6595 20.8341 74.9485 18.8995 73.0215C17.8873 72.0114 17.1681 70.7722 16.925 69.6193C16.8052 69.0411 16.7019 67.9746 17.3712 67.3067L15.7963 65.7352C14.7507 66.7785 14.3778 68.3201 14.7474 70.0744C15.0804 71.6592 15.996 73.264 17.3279 74.5897C19.106 76.3639 21.247 77.3041 23.115 77.3041C24.3104 77.3074 25.3959 76.922 26.2017 76.118ZM48.4143 88.9727C45.5441 88.9727 42.9336 87.8696 41.3519 85.6901C39.8735 83.6567 39.4973 81.0353 40.2964 78.3042C41.0622 75.6761 42.8403 73.2473 45.2977 71.4665C47.755 69.6856 50.6219 68.762 53.3623 68.8384C56.2092 68.9282 58.5933 70.0976 60.0717 72.1277C63.0551 76.2309 61.287 82.6101 56.1259 86.3512C53.6986 88.1088 50.9549 88.9727 48.4143 88.9727ZM53.0093 71.0578C50.8417 71.0578 48.5775 71.8354 46.6029 73.2673C44.5418 74.7591 43.0601 76.7692 42.4308 78.9255C41.8314 80.9821 42.0845 82.9191 43.15 84.381C45.4142 87.4942 50.6485 87.5673 54.814 84.5505C58.9828 81.5303 60.5312 76.5433 58.2669 73.4335C57.2014 71.9682 55.4334 71.1276 53.289 71.0578C53.1991 71.0612 53.1026 71.0578 53.0093 71.0578ZM49.0969 84.3877C50.5586 84.3179 52.1203 83.7298 53.4921 82.7364C54.864 81.743 55.9062 80.4439 56.4256 79.0784C57.0017 77.5733 56.8785 76.0881 56.096 75.0083L54.2946 76.314C54.7541 76.9453 54.5244 77.8191 54.3479 78.2842C53.9849 79.2378 53.1958 80.2013 52.1868 80.9356C51.1779 81.6665 50.0125 82.1151 48.9936 82.1649C48.4942 82.1816 47.5885 82.135 47.1323 81.5038C46.6995 80.9057 46.7927 79.9322 47.3821 78.8956L45.4475 77.7958C44.4086 79.6099 44.3653 81.4838 45.3276 82.8095C46.0635 83.8228 47.3221 84.391 48.8105 84.391C48.9038 84.3943 49.0003 84.391 49.0969 84.3877ZM47.4187 59.4857C41.9679 59.4857 37.5327 55.0601 37.5327 49.6212C37.5327 44.1823 41.9679 39.7568 47.4187 39.7568C52.8695 39.7568 57.3047 44.1823 57.3047 49.6212C57.3047 55.0601 52.8695 59.4857 47.4187 59.4857ZM47.4187 41.9795C43.1966 41.9795 39.7603 45.4083 39.7603 49.6212C39.7603 53.8341 43.1966 57.2629 47.4187 57.2629C51.6408 57.2629 55.0771 53.8341 55.0771 49.6212C55.0771 45.4083 51.6408 41.9795 47.4187 41.9795ZM51.0947 53.6015L49.5863 51.9669C48.9937 52.5118 48.2245 52.8108 47.4187 52.8108C45.6573 52.8108 44.2222 51.3788 44.2222 49.6212H41.9945C41.9945 52.6048 44.4286 55.0335 47.4187 55.0335C48.7839 55.0335 50.0891 54.5218 51.0947 53.6015ZM47.4187 44.2089V46.4317C49.1801 46.4317 50.6152 47.8603 50.6152 49.6212H52.8428C52.8428 46.6376 50.4088 44.2089 47.4187 44.2089ZM61.4901 67.463C59.2159 67.463 57.3646 65.6156 57.3646 63.3464C57.3646 61.0738 59.2159 59.2299 61.4901 59.2299C63.7643 59.2299 65.6157 61.0771 65.6157 63.3464C65.6157 65.6156 63.7643 67.463 61.4901 67.463ZM61.4901 61.4493C60.4446 61.4493 59.5922 62.2998 59.5922 63.3464C59.5922 64.393 60.4446 65.2435 61.4901 65.2435C62.539 65.2435 63.3914 64.393 63.3914 63.3464C63.3914 62.2998 62.539 61.4493 61.4901 61.4493ZM26.5679 44.3751C24.2937 44.3751 22.4424 42.5277 22.4424 40.2585C22.4424 37.9859 24.2937 36.1419 26.5679 36.1419C28.8421 36.1419 30.6935 37.9892 30.6935 40.2585C30.6935 42.5277 28.8421 44.3751 26.5679 44.3751ZM26.5679 38.3613C25.5191 38.3613 24.6667 39.2119 24.6667 40.2585C24.6667 41.305 25.5191 42.1556 26.5679 42.1556C27.6168 42.1556 28.4659 41.305 28.4659 40.2585C28.4659 39.2119 27.6135 38.3613 26.5679 38.3613Z" fill="#7D583F"/>
</svg>
