<svg width="100" height="64" viewBox="0 0 100 64" fill="none" xmlns="http://www.w3.org/2000/svg">
<path id="Vector" d="M54.5585 40.9697H0V38.7077H54.5585C58.2408 38.7077 61.2406 35.6646 61.2406 31.9217C61.2406 28.1821 58.2442 25.1356 54.5585 25.1356H0V22.8736H54.5585C56.0934 22.8736 57.5417 23.2692 58.8035 23.9691L64.1338 18.5559L67.8327 22.3158L66.2579 23.915L64.1338 21.7545L60.628 25.3149C62.1129 26.7248 63.125 28.6386 63.3914 30.789H67.7662L71.262 27.2387V19.3707L74.7279 15.851L76.3027 17.4502L73.4893 20.3073V26.2684H76.1595L81.1469 31.3333L79.5721 32.9326L75.2373 28.5304H73.1432L68.6884 33.0544H63.3914C63.2715 34.0112 63.0052 34.9241 62.6123 35.7661L67.4898 40.7195H72.657L76.6489 44.7769L75.0741 46.3762L72.4939 43.7524V48.7734L77.0651 53.4158L75.4903 55.0151L70.2665 49.71V42.9815H66.5676L61.3871 37.7204C59.7524 39.7018 57.2986 40.9697 54.5585 40.9697ZM62.3926 46.2984L64.5267 44.1311L62.9519 42.5318L60.8178 44.6991L62.3926 46.2984ZM92.0639 11.9524L88.4583 8.29063L86.8834 9.88994L90.4892 13.5517L92.0639 11.9524ZM83.8404 36.4761L82.2656 38.0754L87.9122 43.8099L81.7729 50.2138L79.0428 47.4413L77.468 49.0406L81.7929 53.4327L85.0689 50.0143H92.4136V47.7523H87.2364L91.0386 43.7862L83.8404 36.4761ZM78.8463 24.9835L82.0326 21.7477H89.2906L94.3912 16.5678L92.8164 14.9684L88.3684 19.4891H84.2599L86.667 17.0445L81.1936 11.4858L84.2033 8.42927L82.6285 6.82996L78.044 11.4858L83.5175 17.0445L77.2716 23.3876L78.8463 24.9835ZM73.0433 35.1777L76.2527 38.4372L77.8275 36.8379L74.618 33.5784L73.0433 35.1777ZM88.0255 27.2117L86.4507 25.6124L82.8549 29.2641L84.4297 30.8634L88.0255 27.2117ZM72.3907 11.2086L68.795 14.8602L70.3698 16.4596L73.9655 12.8079L72.3907 11.2086ZM87.9621 57.9297V53.4056H85.7348V57.9297H87.9621ZM31.1797 27.401H0.00333263V29.663H31.1797V27.401ZM35.631 27.401V29.663H42.3131V27.401H35.631ZM94.0649 36.6621C92.7065 35.6241 91.8941 33.9402 91.8941 32.1584V31.6444C91.8941 29.8625 92.7065 28.1787 94.0649 27.1407C98.1867 23.9962 100.384 18.992 99.9446 13.7614C99.2954 6.04552 92.7831 0 85.1222 0C80.4045 0 74.6147 2.56292 67.9126 7.61778C60.6613 13.0851 51.5421 16.0944 42.2299 16.0944H0V18.3564H42.2299C52.0149 18.3564 61.6068 15.1882 69.2377 9.43347C75.4603 4.74378 80.9505 2.26201 85.1189 2.26201C91.6345 2.26201 97.1712 7.398 97.7239 13.9541C98.0968 18.4071 96.2257 22.6606 92.7232 25.3351C90.8054 26.7992 89.6635 29.1592 89.6635 31.6478V32.1617C89.6635 34.6503 90.8088 37.0103 92.7232 38.4744C96.2257 41.1489 98.0968 45.4024 97.7239 49.8554C97.1712 56.4115 91.6345 61.5475 85.1189 61.5475C80.9772 61.5475 75.5236 59.0962 69.3443 54.4572C61.6468 48.6788 51.9782 45.4937 42.12 45.4937H0V47.7557H42.12C51.5055 47.7557 60.7046 50.7819 68.0192 56.2763C74.678 61.2737 80.4312 63.8095 85.1189 63.8095C92.7798 63.8095 99.2921 57.764 99.9413 50.0448C100.384 44.8107 98.1867 39.81 94.0649 36.6621Z" fill="#7D583F"/>
</svg>
