<svg width="75" height="100" viewBox="0 0 75 100" fill="none" xmlns="http://www.w3.org/2000/svg">
<path id="Vector" d="M74.3623 54.3857L72.1299 54.5974C71.4025 46.8712 67.8292 39.7533 62.0638 34.5544L63.5622 32.8841C69.7467 38.4595 73.5813 46.0949 74.3623 54.3857ZM5.98508 73.6625L3.87667 74.4287C6.39736 81.4021 10.6409 87.71 16.1483 92.667L17.6467 90.9968C12.4109 86.2818 8.38175 80.2897 5.98508 73.6625ZM72.2673 58.4185V63.8695H74.5098V58.4185H72.2673ZM68.9053 57.5413V84.7695C68.9053 88.8426 67.3231 92.6704 64.4505 95.5471C61.5812 98.4205 57.77 100 53.7174 100C53.7107 100 53.704 100 53.6973 100H53.3286C46.4369 99.9899 39.6089 98.7465 33.0356 96.3033L32.3719 96.0579C21.6891 92.0856 13.4734 83.6571 9.48118 73.3667L9.44428 73.3835L2.975 58.1832C-0.604926 49.7715 -0.96695 40.3717 1.95934 31.7079L6.06553 19.5389V0.0336087H19.5941V13.157C20.9081 11.2011 22.4031 9.57454 24.0691 8.30757V0H26.3115V9.46028L25.8389 9.79635C23.3719 11.5439 21.2836 14.1753 19.6344 17.6166L19.5975 17.5998V29.0799C22.755 24.916 25.9026 20.8025 28.259 17.8048C30.4613 15.002 33.773 13.3956 37.3462 13.3956H44.8682C41.7575 9.46028 37.7955 7.31953 33.5351 7.31953C33.0591 7.31953 32.5697 7.34642 32.0401 7.40355L30.7999 7.53461V0.00336395H33.0423V5.08133C33.2099 5.07461 33.3742 5.07461 33.5351 5.07461C34.5072 5.07461 35.4658 5.17543 36.4044 5.36027V0.00672277H38.6469V5.97863C42.0793 7.2288 45.1632 9.76274 47.6436 13.399H61.0046V29.2311H50.2548L58.7521 36.1507C65.2013 41.4001 68.9053 49.2002 68.9053 57.5413ZM6.90688 61.6918C6.85325 60.865 6.80966 60.0316 6.80966 59.1948L6.81301 55.9484C6.81637 49.5698 8.92475 43.2484 12.7494 38.1503C14.1639 36.265 15.736 34.178 17.3517 32.0372V2.27853H8.30463V19.9052L4.07774 32.4237C1.3291 40.5599 1.67104 49.3951 5.03309 57.296L6.90688 61.6918ZM66.6628 61.8968C66.6628 58.0656 64.1354 54.6478 60.5152 53.5892L48.0391 50.0571L49.8626 52.5911C53.1308 57.1347 55.0213 62.4042 55.4035 67.9426L63.0259 75.5848L61.4404 77.1744L55.4805 71.1991L55.4638 85.3341L53.2213 85.3307L53.228 78.5724L45.6927 86.1272L44.1073 84.5376L53.2146 75.41L53.2314 75.4268L53.2381 70.0565C53.2448 64.2223 51.4481 58.6369 48.0425 53.9017L42.505 46.2058C42.4916 46.1856 42.4781 46.1688 42.4647 46.152L42.2 45.7857L42.2234 45.7689C41.905 45.2715 41.6167 44.754 41.3854 44.1961C40.1887 41.3295 40.3463 38.1167 41.8145 35.3811L46.4972 26.966H58.7521V15.6305H37.3363C34.4569 15.6305 31.7887 16.9277 30.0121 19.1861C25.8858 24.4321 19.3193 33.1295 14.5394 39.4979C13.6109 40.7346 12.7997 42.0554 12.0958 43.4299C11.8678 44.707 10.8187 53.4817 22.9261 62.0077L21.6355 63.846C19.9863 62.6865 18.5718 61.5137 17.3416 60.3509V67.4183H15.0991V58.0018C12.0756 54.4697 10.7046 51.1225 10.1247 48.4675C9.43423 50.8939 9.05547 53.4077 9.05212 55.9383L9.04877 59.1847C9.03871 74.6068 18.726 88.5737 33.1463 93.9374L33.81 94.1827C40.1318 96.5352 46.6984 97.7316 53.3252 97.7383H53.6939C53.7006 97.7383 53.704 97.7383 53.7107 97.7383C57.1666 97.7383 60.4147 96.3906 62.8616 93.9407C65.3119 91.4874 66.6628 88.2242 66.6628 84.7527V61.8968ZM66.5388 55.1116C65.8985 48.3802 62.627 42.1999 57.3275 37.8848L47.4693 29.8562L43.7754 36.4666C42.6391 38.5838 42.5151 41.0909 43.4503 43.3291C43.6782 43.8735 43.9631 44.3843 44.295 44.8582L44.315 44.8851C45.3206 46.2999 46.7654 47.3417 48.4514 47.8357L61.1287 51.4249C63.3175 52.0702 65.1812 53.3876 66.5388 55.1116Z" fill="#7D583F"/>
</svg>
