<svg width="100" height="82" viewBox="0 0 100 82" fill="none" xmlns="http://www.w3.org/2000/svg">
<path id="Vector" d="M32.5913 39.1986H34.8141C34.8141 40.9837 34.422 42.6729 33.7309 44.2034C35.791 44.5373 39.4092 45.5488 41.024 48.6297L39.0537 49.6511C37.6383 46.9537 33.7575 46.3884 32.5381 46.276C30.302 49.4164 26.6272 51.4725 22.474 51.4725V49.2611C28.056 49.2644 32.5913 44.7488 32.5913 39.1986ZM100 35.2252C100 44.134 92.8332 51.3833 84.025 51.3833C84.025 51.3833 75.363 51.3965 73.3761 51.3998C72.0404 57.0988 66.907 61.3598 60.7768 61.3598V61.3499H54.6898L40.7549 81.25H32.3986V73.5114L28.3583 73.5081C22.6335 73.5081 17.9785 68.8736 17.9785 63.1779V61.3499C17.9785 61.3499 14.0446 61.3697 13.7987 61.3697C6.19 61.3697 0 55.2113 0 47.6413C0 43.5059 1.87726 39.6118 5.06695 37.0136C3.45882 34.6467 2.61488 31.8997 2.61488 29.0039C2.61488 22.4256 7.15022 16.687 13.4997 15.0937C15.1909 8.65755 21.125 4.05606 27.8732 4.05606C29.7339 4.05606 31.5347 4.41308 33.2459 5.07421C36.1432 1.85119 40.2199 0 44.5891 0C48.4932 0 52.2677 1.51069 55.0919 4.17506C57.3014 2.85279 59.8199 2.1553 62.4282 2.1553C66.8671 2.1553 71.0204 4.22795 73.7216 7.70551C74.8746 7.41792 76.0574 7.26256 77.2536 7.26256C84.3672 7.26256 90.421 12.4525 91.5008 19.4043C98.3055 24.181 100 30.9146 100 35.2252ZM97.7805 35.2252C97.7805 28.8783 93.5143 23.2818 89.7166 20.7827L89.4043 20.5051L89.3511 20.0919C88.5902 14.0392 83.3871 9.47405 77.2502 9.47405C76.5026 9.47405 75.7584 9.55009 75.0274 9.68562C76.1272 11.7318 76.712 14.0127 76.712 16.3664H74.4891C74.4891 13.9301 73.7615 11.5864 72.3826 9.58974C70.1266 6.32044 66.4053 4.36679 62.4282 4.36679C59.9595 4.36679 57.5871 5.10396 55.5703 6.49895L54.7795 7.04438L54.1217 6.34358C51.6264 3.67921 48.2407 2.20818 44.5858 2.20818C41.0738 2.20818 37.7712 3.59988 35.3324 6.0626C37.7313 7.45759 39.7216 9.50381 41.024 11.9566L39.0571 12.988C37.7546 10.5286 35.6381 8.53855 33.0963 7.38818C31.4516 6.6444 29.694 6.26755 27.8732 6.26755C21.9258 6.26755 16.7259 10.4657 15.5065 16.2474L15.357 16.9614L14.636 17.1035C8.95772 18.2308 4.83439 23.2355 4.83439 29.0039C4.83439 31.7774 5.74809 34.3856 7.47915 36.5508L8.22009 37.4797L7.23994 38.1507C4.09677 40.306 2.21951 43.853 2.21951 47.6413C2.21951 53.9915 7.41271 59.1582 13.7954 59.1582C14.008 59.1582 35.1231 59.1384 35.1231 59.1384V61.3499H20.198V63.1779C20.198 67.6538 23.8595 71.2966 28.3583 71.2966L34.6181 71.2999V79.0385H39.5953L51.9819 61.3499H49.191V59.1384H60.7768V59.1483C66.6911 59.1483 71.5021 54.3617 71.5021 48.4809C71.5021 42.6266 66.7376 37.8565 60.8599 37.8135C60.3815 37.8697 59.8997 37.7309 59.5275 37.4135C59.1155 37.0631 58.8929 36.5541 58.9162 36.0119C59.1022 31.7939 55.9491 28.0585 51.736 27.5098C49.8222 27.2585 47.8752 27.685 46.2471 28.7064L46.2339 28.6866C44.5792 29.5461 42.775 30.0122 40.931 30.0122C40.097 30.0122 39.2564 29.9229 38.4224 29.7378C35.4089 29.0767 32.8305 27.2883 31.1692 24.7L33.0431 23.5099C34.3855 25.5991 36.4654 27.047 38.9009 27.5792C41.333 28.1114 43.8316 27.6718 45.9348 26.333C48.9085 24.4421 50.5432 21.0935 50.201 17.5928L52.4139 17.3779C52.6963 20.2373 51.8922 23.0008 50.2642 25.2355C50.8489 25.2123 51.4403 25.2388 52.0251 25.3148C54.1084 25.5859 55.979 26.4817 57.4841 27.7775C59.8432 26.5346 61.4148 24.2074 61.6274 21.5298L63.8436 21.705C63.5877 24.9413 61.7902 27.7974 59.0557 29.4502C60.3615 31.1923 61.1357 33.3344 61.1456 35.6087C65.4384 35.7277 69.2096 37.9425 71.4789 41.2547C76.7253 40.8878 80.8851 36.5375 80.8851 31.2253H83.108C83.108 37.3607 78.556 42.4448 72.6385 43.3472C73.3296 44.924 73.725 46.6595 73.725 48.4842C73.725 48.7222 73.7017 48.9569 73.6884 49.1916C75.7551 49.1883 84.025 49.1751 84.025 49.1751C91.6105 49.1751 97.7805 42.9175 97.7805 35.2252Z" fill="#7D583F"/>
</svg>
