<svg width="65" height="100" viewBox="0 0 65 100" fill="none" xmlns="http://www.w3.org/2000/svg">
<path id="Vector" d="M56.719 37.6246L39.9051 32.5083V28.8871H41.7745C43.7995 28.8871 45.4468 27.2359 45.4468 25.206V21.1096H46.746C47.4189 21.1096 48.0552 20.7807 48.443 20.2326C48.8341 19.6844 48.9368 18.9734 48.7181 18.3356L46.0467 10.5515C44.2967 4.33887 38.5761 0 32.1329 0C31.5429 0 30.943 0.0365676 30.3498 0.106335C23.6514 0.903677 18.3451 6.3854 17.7286 13.1396C17.2646 18.216 19.7437 23.0399 24.3839 26.1561V32.505L7.6728 37.5847C3.08238 39.1229 0 43.216 0 47.7708V93.3223C0 96.9967 2.98292 99.99 6.65194 99.99C10.3176 99.99 13.3039 97 13.3039 93.3223V57.7708H11.0866V93.3223C11.0866 95.7741 9.09796 97.7675 6.65194 97.7675C4.20593 97.7675 2.21734 95.7741 2.21734 93.3223V47.7708C2.21734 44.1728 4.69318 40.9269 8.34563 39.701L26.6012 34.1528V24.9336L26.0776 24.608C21.8285 21.9635 19.5317 17.7508 19.936 13.3422C20.4564 7.6246 24.9473 2.9867 30.6116 2.31228C36.6239 1.59135 42.2882 5.40532 43.9288 11.216L46.5604 18.887H43.2262V22.2193H36.8526C33.6443 22.2193 31.0325 24.8372 31.0325 28.0532V47.7741V49.9967V61.1063H25.4909H24.0127C21.7721 61.1063 19.9493 62.9336 19.9493 65.1794V68.1628C18.6434 68.7907 17.7319 70.1163 17.7319 71.6612V82.8073C17.7319 83.8472 18.1363 84.8239 18.8721 85.5615C19.6046 86.2924 20.5757 86.6977 21.6097 86.6977C21.6131 86.6977 21.6164 86.6977 21.6197 86.6977L34.9203 86.6678C37.0548 86.6611 38.7915 84.917 38.7915 82.7741C38.7915 80.6312 37.0514 78.8871 34.9137 78.8871H27.1547C26.2367 78.8871 25.4909 78.1396 25.4909 77.2193C25.4909 76.299 26.2367 75.5515 27.1547 75.5515H34.9137C37.0514 75.5515 38.7915 73.8073 38.7915 71.6644V69.9967H42.6693C43.5874 69.9967 44.3332 70.7442 44.3332 71.6644V89.4418C44.3332 90.3621 43.5874 91.1096 42.6693 91.1096H34.9104C32.7726 91.1096 31.0325 92.8538 31.0325 94.9967V98.8837H33.2498V94.9967C33.2498 94.0764 33.9956 93.3289 34.9137 93.3289H42.6726C44.8104 93.3289 46.5505 91.5847 46.5505 89.4418V71.6644C46.5505 69.5216 44.8104 67.7774 42.6726 67.7774H22.1666V65.186C22.1666 64.1661 22.9952 63.3356 24.0127 63.3356H25.4909H33.2498H36.0207C38.7716 63.3356 41.0088 61.093 41.0088 58.3355V52.7807C41.0088 50.0233 38.7716 47.7808 36.0207 47.7808H33.2498V28.0598C33.2498 26.0698 34.8673 24.4485 36.8526 24.4485H43.2262V25.2126C43.2262 26.0166 42.5732 26.6711 41.7711 26.6711H37.6845V34.1628L56.0528 39.7508C59.7086 40.9302 62.0684 44.0831 62.0684 47.7808V93.3322C62.0684 95.7841 60.0798 97.7774 57.6338 97.7774C55.1878 97.7774 53.1991 95.7841 53.1991 93.3322V57.7807H50.9818V93.3322C50.9818 97.0067 53.9647 100 57.6338 100C61.2995 100 64.2857 97.01 64.2857 93.3322V47.7808C64.289 43.093 61.3227 39.113 56.719 37.6246ZM36.5775 71.6612C36.5775 72.5814 35.8318 73.3289 34.9137 73.3289H27.1547C25.017 73.3289 23.2769 75.0731 23.2769 77.216C23.2769 79.3588 25.017 81.103 27.1547 81.103H34.9137C35.8318 81.103 36.5775 81.8505 36.5775 82.7774C36.5775 83.6944 35.8351 84.4419 34.9203 84.4452L21.6197 84.4751H21.6164C21.1723 84.4751 20.7547 84.3023 20.4431 83.9901C20.1283 83.6744 19.9559 83.2558 19.9559 82.8106V71.6644C19.9559 70.7442 20.7016 69.9967 21.6197 69.9967H36.5841V71.6612H36.5775ZM36.024 49.9967C37.5519 49.9967 38.7948 51.2425 38.7948 52.7741V58.3289C38.7948 59.8605 37.5519 61.1063 36.024 61.1063H33.2532V49.9967H36.024Z" fill="#7D583F"/>
</svg>
