<svg width="100" height="96" viewBox="0 0 100 96" fill="none" xmlns="http://www.w3.org/2000/svg">
<path id="Vector" d="M24.3466 59.034L25.8233 61.0117C21.9544 63.9009 17.0445 69.4431 12.3487 76.2251L10.3183 74.8192C15.2319 67.7273 20.2157 62.1187 24.3466 59.034ZM5.23855 82.8225L7.37595 84.0586C8.30256 82.4609 9.29932 80.8374 10.3404 79.2323L8.26939 77.8891C7.2025 79.5274 6.18362 81.1879 5.23855 82.8225ZM55.5154 74.0443H45.7177L36.1931 84.6859C35.1447 85.8593 34.5652 87.3721 34.5652 88.944V95.0212H37.0349V88.944C37.0349 87.9773 37.3892 87.0511 38.0316 86.3316L46.8178 76.5128H54.4042L63.1904 86.3316C63.8364 87.0548 64.1908 87.9809 64.1908 88.9477V95.0249H66.6605V88.9477C66.6605 87.3758 66.0846 85.863 65.0325 84.6896L55.5154 74.0443ZM100 78.9371V83.9295C94.6212 73.9742 85.9791 62.0965 78.6031 56.5913C76.761 55.215 75.0627 55.0305 73.6414 55.0305C69.684 55.0305 66.7012 58.0267 66.7012 61.997V72.7307C66.7012 73.5056 66.2396 74.1956 65.5234 74.4908C64.811 74.786 63.9914 74.6273 63.4451 74.0812L54.6884 65.3326H46.4523L37.6772 74.0997C37.1308 74.6458 36.3187 74.8081 35.5988 74.5129C34.8827 74.2177 34.4211 73.524 34.4211 72.7492V61.997C34.4211 58.0267 31.4383 55.0305 27.4846 55.0305C26.067 55.0305 24.365 55.215 22.5229 56.5913C14.6079 62.5024 5.23479 75.7454 0 86.0807V80.8779C5.57442 71.074 13.8696 59.9712 21.0425 54.6136C23.479 52.7945 25.7642 52.5583 27.4846 52.5583C32.8486 52.5583 36.8909 56.6135 36.8909 61.9933V71.3913L44.3997 63.8898V39.3818C43.2775 39.3339 42.2254 38.8357 41.4981 37.9723L41.0809 37.4779C35.6615 31.0243 34.5319 21.9509 38.2088 14.3683C38.8179 13.11 40.1175 12.2983 41.5129 12.2983C41.7344 12.2983 41.9485 12.3204 42.1589 12.361L39.5009 6.43509V0H61.7248V6.44247L59.0483 12.3204C59.1296 12.3167 59.207 12.302 59.2883 12.302C60.6874 12.302 61.9869 13.1137 62.596 14.372C66.2692 21.9546 65.1432 31.0243 59.7238 37.4779L59.3104 37.9723C58.6607 38.7471 57.7488 39.2157 56.7631 39.3449V63.9083L64.2314 71.3729V61.9933C64.2314 56.6135 68.2774 52.5583 73.6414 52.5583C75.3581 52.5583 77.6433 52.7908 80.0798 54.6136C86.7875 59.6207 94.4736 69.646 100 78.9371ZM46.8731 62.864H54.2971V54.2999H46.8731V62.864ZM54.2971 51.8314V44.4258H46.8731V51.8314H54.2971ZM54.2971 41.961V38.891C53.448 38.4151 52.7725 37.6439 52.4513 36.6734L52.0932 35.6034C51.868 34.9319 51.2441 34.4817 50.5353 34.4817H50.2806C49.5718 34.4817 48.9478 34.9319 48.7227 35.6034L48.3683 36.6734C48.0914 37.5073 47.5561 38.1974 46.8731 38.6808V41.9647H54.2971V41.961ZM46.2419 18.5157L47.0467 20.9252C47.2941 21.6631 47.977 22.1539 48.7559 22.1539H52.0673C52.8426 22.1539 53.5293 21.6594 53.7766 20.9252L54.5814 18.5157H46.2419ZM41.978 5.91116L46.5261 16.0472H54.6478L59.2624 5.90746V2.47219H41.978V5.91116ZM43.3956 36.3893C43.6872 36.7398 44.1154 36.9391 44.5695 36.9391C45.2303 36.9391 45.8174 36.5185 46.0278 35.8912L46.3822 34.8211C46.9433 33.1385 48.5123 32.0095 50.2806 32.0095H50.5353C52.3073 32.0095 53.8726 33.1385 54.4337 34.8174L54.7918 35.8875C55.0023 36.5148 55.5892 36.9354 56.25 36.9354C56.7041 36.9354 57.1323 36.7362 57.4239 36.3856L57.8375 35.8912C62.6329 30.1793 63.6296 22.1539 60.3773 15.4457C60.1779 15.0325 59.7534 14.7668 59.292 14.7668C58.7751 14.7668 58.3136 15.0989 58.1475 15.5896L56.1097 21.7C55.5264 23.4453 53.8984 24.6187 52.0599 24.6187H48.7485C46.9101 24.6187 45.2821 23.4453 44.6988 21.7L42.661 15.5859C42.4985 15.0915 42.037 14.7631 41.5165 14.7631C41.0587 14.7631 40.6342 15.0288 40.4349 15.442C37.1825 22.1502 38.1793 30.1756 42.9748 35.8875L43.3956 36.3893Z" fill="#7D583F"/>
</svg>
